<mxfile host="65bd71144e">
    <diagram name="Page-1" id="0">
        <mxGraphModel dx="3088" dy="843" grid="1" gridSize="10" guides="1" tooltips="1" connect="1" arrows="1" fold="1" page="1" pageScale="1" pageWidth="827" pageHeight="1169" math="0" shadow="0">
            <root>
                <mxCell id="0"/>
                <mxCell id="1" parent="0"/>
                <mxCell id="4" value="" style="edgeStyle=none;html=1;" edge="1" parent="1" source="2" target="3">
                    <mxGeometry relative="1" as="geometry"/>
                </mxCell>
                <mxCell id="2" value="&lt;div style=&quot;color: rgb(59, 59, 59); background-color: rgb(255, 255, 255); font-family: Consolas, &amp;quot;Courier New&amp;quot;, monospace; font-size: 14px; line-height: 19px; white-space: pre;&quot;&gt;&lt;div&gt;&lt;span style=&quot;color: rgb(4, 81, 165);&quot;&gt;-&lt;/span&gt;&lt;span style=&quot;color: rgb(59, 59, 59);&quot;&gt; [&lt;/span&gt;&lt;span style=&quot;color: rgb(163, 21, 21);&quot;&gt;+&lt;/span&gt;&lt;span style=&quot;color: rgb(59, 59, 59);&quot;&gt;] Start Minikube and ensure it is running 🐳&lt;/span&gt;&lt;/div&gt;&lt;/div&gt;" style="rounded=1;whiteSpace=wrap;html=1;" parent="1" vertex="1">
                    <mxGeometry x="-1460" y="960" width="590" height="80" as="geometry"/>
                </mxCell>
                <mxCell id="6" value="" style="edgeStyle=none;html=1;" edge="1" parent="1" source="3" target="5">
                    <mxGeometry relative="1" as="geometry"/>
                </mxCell>
                <mxCell id="3" value="&lt;div style=&quot;color: rgb(59, 59, 59); background-color: rgb(255, 255, 255); font-family: Consolas, &amp;quot;Courier New&amp;quot;, monospace; font-size: 14px; line-height: 19px; white-space: pre;&quot;&gt;&lt;div&gt;&lt;span style=&quot;background-color: light-dark(rgb(255, 255, 255), rgb(18, 18, 18)); color: rgb(4, 81, 165);&quot;&gt;-&lt;/span&gt;&lt;span style=&quot;background-color: light-dark(rgb(255, 255, 255), rgb(18, 18, 18)); color: rgb(59, 59, 59);&quot;&gt; [&lt;/span&gt;&lt;span style=&quot;background-color: light-dark(rgb(255, 255, 255), rgb(18, 18, 18)); color: rgb(163, 21, 21);&quot;&gt;+&lt;/span&gt;&lt;span style=&quot;background-color: light-dark(rgb(255, 255, 255), rgb(18, 18, 18)); color: rgb(59, 59, 59);&quot;&gt;] Verify the Kubernetes cluster is active and configured ✅&lt;/span&gt;&lt;/div&gt;&lt;div&gt;&lt;br&gt;&lt;/div&gt;&lt;br&gt;&lt;/div&gt;" style="rounded=1;whiteSpace=wrap;html=1;" vertex="1" parent="1">
                    <mxGeometry x="-660" y="860" width="590" height="280" as="geometry"/>
                </mxCell>
                <mxCell id="8" value="" style="edgeStyle=none;html=1;" edge="1" parent="1" source="5" target="7">
                    <mxGeometry relative="1" as="geometry"/>
                </mxCell>
                <mxCell id="5" value="&lt;div style=&quot;color: rgb(59, 59, 59); background-color: rgb(255, 255, 255); font-family: Consolas, &amp;quot;Courier New&amp;quot;, monospace; font-size: 14px; line-height: 19px; white-space: pre;&quot;&gt;&lt;div&gt;&lt;br&gt;&lt;/div&gt;&lt;div&gt;&lt;span style=&quot;color: rgb(4, 81, 165);&quot;&gt;-&lt;/span&gt;&lt;span style=&quot;color: rgb(59, 59, 59);&quot;&gt; [&lt;/span&gt;&lt;span style=&quot;color: rgb(163, 21, 21);&quot;&gt;+&lt;/span&gt;&lt;span style=&quot;color: rgb(59, 59, 59);&quot;&gt;] Apply the necessary YAML configurations for roles and bindings 📜&lt;/span&gt;&lt;/div&gt;&lt;div&gt;&lt;br&gt;&lt;/div&gt;&lt;/div&gt;" style="rounded=1;whiteSpace=wrap;html=1;" vertex="1" parent="1">
                    <mxGeometry x="80" y="870" width="590" height="280" as="geometry"/>
                </mxCell>
                <mxCell id="10" value="" style="edgeStyle=none;html=1;" edge="1" parent="1" source="7" target="9">
                    <mxGeometry relative="1" as="geometry"/>
                </mxCell>
                <mxCell id="7" value="&lt;div style=&quot;color: rgb(59, 59, 59); background-color: rgb(255, 255, 255); font-family: Consolas, &amp;quot;Courier New&amp;quot;, monospace; font-size: 14px; line-height: 19px; white-space: pre;&quot;&gt;&lt;div&gt;&lt;br&gt;&lt;/div&gt;&lt;div&gt;&lt;span style=&quot;color: rgb(4, 81, 165);&quot;&gt;-&lt;/span&gt;&lt;span style=&quot;color: rgb(59, 59, 59);&quot;&gt; [&lt;/span&gt;&lt;span style=&quot;color: rgb(163, 21, 21);&quot;&gt;+&lt;/span&gt;&lt;span style=&quot;color: rgb(59, 59, 59);&quot;&gt;] Set up the Tekton Pipelines CRDs for pipeline execution 🔧&lt;/span&gt;&lt;/div&gt;&lt;div&gt;&lt;br&gt;&lt;/div&gt;&lt;br&gt;&lt;/div&gt;" style="rounded=1;whiteSpace=wrap;html=1;" vertex="1" parent="1">
                    <mxGeometry x="750" y="870" width="590" height="280" as="geometry"/>
                </mxCell>
                <mxCell id="12" value="" style="edgeStyle=none;html=1;" edge="1" parent="1" source="9" target="11">
                    <mxGeometry relative="1" as="geometry"/>
                </mxCell>
                <mxCell id="9" value="&lt;div style=&quot;color: rgb(59, 59, 59); background-color: rgb(255, 255, 255); font-family: Consolas, &amp;quot;Courier New&amp;quot;, monospace; font-size: 14px; line-height: 19px; white-space: pre;&quot;&gt;&lt;div&gt;&lt;br&gt;&lt;/div&gt;&lt;div&gt;&lt;span style=&quot;color: rgb(4, 81, 165);&quot;&gt;-&lt;/span&gt;&lt;span style=&quot;color: rgb(59, 59, 59);&quot;&gt; [&lt;/span&gt;&lt;span style=&quot;color: rgb(163, 21, 21);&quot;&gt;+&lt;/span&gt;&lt;span style=&quot;color: rgb(59, 59, 59);&quot;&gt;] Test the pipeline setup with a sample PipelineRun 🚀&lt;/span&gt;&lt;/div&gt;&lt;div&gt;&lt;br&gt;&lt;/div&gt;&lt;/div&gt;" style="rounded=1;whiteSpace=wrap;html=1;" vertex="1" parent="1">
                    <mxGeometry x="1420" y="870" width="590" height="280" as="geometry"/>
                </mxCell>
                <mxCell id="14" value="" style="edgeStyle=none;html=1;" edge="1" parent="1" source="11" target="13">
                    <mxGeometry relative="1" as="geometry"/>
                </mxCell>
                <mxCell id="11" value="&lt;div style=&quot;color: rgb(59, 59, 59); background-color: rgb(255, 255, 255); font-family: Consolas, &amp;quot;Courier New&amp;quot;, monospace; font-size: 14px; line-height: 19px; white-space: pre;&quot;&gt;&lt;div&gt;&lt;br&gt;&lt;/div&gt;&lt;div&gt;&lt;span style=&quot;color: rgb(4, 81, 165);&quot;&gt;-&lt;/span&gt;&lt;span style=&quot;color: rgb(59, 59, 59);&quot;&gt; [&lt;/span&gt;&lt;span style=&quot;color: rgb(163, 21, 21);&quot;&gt;+&lt;/span&gt;&lt;span style=&quot;color: rgb(59, 59, 59);&quot;&gt;] Verify user permissions for executing pipelines 🔐&lt;/span&gt;&lt;/div&gt;&lt;div&gt;&lt;br&gt;&lt;/div&gt;&lt;/div&gt;" style="rounded=1;whiteSpace=wrap;html=1;" vertex="1" parent="1">
                    <mxGeometry x="1420" y="510" width="590" height="280" as="geometry"/>
                </mxCell>
                <mxCell id="13" value="&lt;div style=&quot;color: rgb(59, 59, 59); background-color: rgb(255, 255, 255); font-family: Consolas, &amp;quot;Courier New&amp;quot;, monospace; font-size: 14px; line-height: 19px; white-space: pre;&quot;&gt;&lt;div&gt;&lt;br&gt;&lt;/div&gt;&lt;div&gt;&lt;span style=&quot;color: rgb(4, 81, 165);&quot;&gt;-&lt;/span&gt;&lt;span style=&quot;color: rgb(59, 59, 59);&quot;&gt; [&lt;/span&gt;&lt;span style=&quot;color: rgb(163, 21, 21);&quot;&gt;+&lt;/span&gt;&lt;span style=&quot;color: rgb(59, 59, 59);&quot;&gt;] Document any errors and their resolutions 📝&lt;/span&gt;&lt;/div&gt;&lt;br&gt;&lt;/div&gt;" style="rounded=1;whiteSpace=wrap;html=1;" vertex="1" parent="1">
                    <mxGeometry x="2090" y="510" width="590" height="280" as="geometry"/>
                </mxCell>
                <mxCell id="15" value="" style="shape=image;verticalLabelPosition=bottom;labelBackgroundColor=default;verticalAlign=top;aspect=fixed;imageAspect=0;image=data:image/png,iVBORw0KGgoAAAANSUhEUgAAAkEAAAB1CAYAAABJcDU/AAAAAXNSR0IArs4c6QAAAARnQU1BAACxjwv8YQUAAAAJcEhZcwAADsMAAA7DAcdvqGQAADq5SURBVHhe7Z0NnF3Tuf9/QUgiFUmEET1JrxPUBKUYTQcdCU6V/w2dtjRDKJNEh1L04jRm7r0zeoe2l6vllGR6+8KQqkHq5To0cYQIR702GUSOZHKIEQRtoolo5r+etdc++2X23meffc4+8/Z881mZs1/W+9prPetZa+9n2Lp163rAMAzDMAwzxNhJ/WUYhmEYhhlSsBDEMAzDMMyQhIUghmEYhmGGJMO2bt3Ke4IYhmEYhhlysCaIYRiGYZghCQtBDMMwDMMMScITgt5fgGOvrUCFdPOwVJ3Oz1LMIz+/XKCObayap8IkdywWvK/O9yFL76zAsUuz6qi8LPhlBeatUgeO5CnPPuLc73Zg9C9eV0elR4Z/xbPqaHBQaJmVsgxuuUKEReFJ9zgeU+fNDMYyLwV9Ui4rH8HuN61QB8XyDDLTpmHV7EXq2A+v49zmRxzbiT/SaJnRIv4vFRTeDMyY26GO/eLsr2PuDMzt6FZH/iF/LaXLFFMC8gpBn3zyCVauXIknn3xSOvpN5zwhQeXW59F8TTe6yZ0BzCrJICwG9PsWY+YZKtxrnsLcvdQlD/pSSBlKrE824fJbXlJHHjz3ODqwG66vPUidYPJiKzM5sJqd2yC74ZMiBiKDi/67FpvvqsX1E9UJN0oUH9G1+EGVvwdxy9vqpA80gc1ZUAsDX/GVsFzy8v4KHHHvZlxfN02dKBFveM62bByE5urNOL1gQUwJHTPiSIl/cfGbhYbiSLcEE9i8CCPMvsJTCNq8eTNeeukl/OMf/8CUKVOko990jq65sWDpKjRfeBumq2NMvQ3N+L1Prc103EYCzg/mqmMT76/BKszEmVPVMeMDj/IsMd0vdeLle6/At/L0Wrcs2gRMnICL9lMnmLw4ltm0Q6Rgsvnnn8eBG97qJQj9jq7ddQJOUsdhU+r4Hly2TeRxHGqxDb/+y8DtcMtdDze3vw5Ufw0X+5gg+uMriK5YgakrWtSxPybP+Bbu3+t1HLHkPXUmHyQAxZFtaMeS1hqgphVLlixBY5W6XBRVaBRhLVlQq479EtQfM1BwFYJ6enqQzWYxatQoHHHEEdh3332lo990jq7RPb1YNQ9N45t7aWhOEYLL71/J5rQy2aXH5pa19OUc87mKOx0W0N59HmvUTzu0LJTzq7ROeniz3gTWPH20Y9gWf6bzXukkzP4ofDOOYZJ27M4F6tqxWLBKLReaNGQWf7YlRMu1Xlo1teRl8+dVngt+SUuJzv6CUnXVPWg4eDg+TMVx3o0uGqHnHsdVG4Das46Rh3IW7bDEYz5v1XoYM255jxj4u95+Fl9W17+82GGwFHHa/VrDNDQNdP7Li581XbdqIdzSQhiaC82Z06JpC5SzCStuaclhK7Ne7HcMrqdJ/4b3pF9LXLY05sufVzrdCCu+NOV52sGomgisXtalzqryMrUZeUztQJU/lRWwCWfo4drvzTktrY/9gu55XF0T6Vucr71o5/PF51UuhFOY+nmvMvNk5SO4CgfhxRkT1AngncZpWNXYqC1pTZuNrkWN4i/9blR3qOWunNPPizzOdj6v+3l10SKTXxH2O+qy4qTYQcDy53vl3ZFu0d8iilh1hTyMVk6Sf/OSbsGMlg651DRjxlx0pDsw17SE1d0xV5yna8LZJmgdc8X93br2iZyxBOflz4ruX/NrX/KS4Vj8O8dHaHlQLs9k0ozFnwpTT388BWQSdcZ1U7gWf6YlP13TYy4D8uYnzIGGqxC0fft2qe3ZZ599sMsuu6izkL/pHF2je+wsfXkxZn6JdECmAZYG7X0M9Q0JJEd3N8slree+OgWLl2qDemT6U7lzZnKD+X2LxdFizNLDVQN7duk84Lv6Elk3mtEkBRg9vDv3B6Z89bnc9e5Zmo6KBJ2m8Xca/j6YZVk2c0un3R+Fr+MZ5ptNeH463b8GTffRcuGdmPmxpiGjPJr9dV9jaNLc8qez+L4mHHmhujZmMZrUNbfy1BBpuNXZnxfdD1yOWbNmubqO7l3lfdkHrxAP0Xr528xjKzaJ/8fh7KO1YzdoADxw8hg5EHRM/Lym8RCulgYby2D5Hs64Abjvrmq5VLN60auWDlcKSDdocd6nZuM0OJnD3HzXaRYNy+pFbwGXa9eun7gNV92gxfeYGCjP1v2Q9oXSogY8GhCnLtqGWuWP3Asztc6c4rtqA8Wvna8lrY1poPRKC+G3zIDdcaDwm2/pyi1/Xun0opD4SKtzVYeRd9f41PJf1cQKnHb8br6WkybPPM2UDiPczZcYS4iubWnFFlT9nNqQSN+yUVil6veO59zrPV98XuWSr127lVk+Hnu5Gwce4vC8/7kLu9x7L0Yf8AY2PzwVn7/3UtH5/xmZZ0hIekhpeoRT51c1iguCyb/Xzo8+QB72YsdNNwE30j03YgRE2AnNX469puGCMd24Y6U69qKiFrFoBom6uWhJ5u+LLKQS6KxfgtYa4T/eifolrajJJEV/RMEukBql9oaoutkMxdeGyvYl8p6GaAptapnH25+OSXu1pBF+lFapuBFfa00KcSVAkOCRiGjaL5mWbNzXkhMJJmZ/ejr09JNSLSrTp64r1Vp3RwvQrPsR8SFhiY+EnLrOenmNyiDV1pE3zIFIyTdGr/lgCo7cB0IYmIVVJHicMRMYPwURdV0yRggWShCJHDYbUz5+3lMLoQ/mMizMxJ30m5wexvTbLJqnU6ZOwZruN9SRG0vxhzdFWCoMYu70mViz6v/UkcAhnbThu8nmzyBPmCK825QsOOWr1xjLhTpv/sGxHPLlb+YZxt4of3nXCOJv0/r1ePfdd93dh1vUneLeNbYHWAgkV60Qws1ZB+eWBg6cLP7r+ghd6JaDonnQfWHiq2IgtGpAms+iAVHTeEiEsHTB5cdgMtRgiS1YnZs1CwHpR29hNe2l+bltOUIMuOeKAc6RaYfgd0rgkOlT8Z10iSmM/Y7BofRXpJ1oEgIQxKCm+8sh8vxrEuhMeT6btDYrNhiDuldaHMqsF+oeTJvofo8Zh/z5SmdQTPFJqMzyxCcFP7X8N3ni7uKMJpAERgpVzm1JIuI6TQmfBx4/WbQnA696D4RHWnLt2qnMfPC6mFAdto+hBcpxwDew577az52+8TWM0X5K9m0xLXPt+wXIaUzXOnmYlxNvRPQr6jfh4O8g0ce88q6/JbHaBTTgCkEhlZGDsB8hQBJtyC2bRRvm+BJGdGpaF6BWm6+gOhZFprP35M2Z5TkBaIEegA/M8VXFhDSRSopfaSRTNWg1CRO19TXIJJerozyIMArVxVTUNubSQfTKuyhTXbipqI4hmuksOI6BgKsQNHz4cIwePVoObJ999pk6C/mbztE1uqc3UzFlL00YaJ4eQfbdVZhSYZ1GTJl6ivol2GsunjJpPQJheROtAkc/7bZoZkLuLzJplchJTZOBUzo98RGmGyTo3bm/4des6QmUv5CovOgeQ/p3cP99mhJ3xQN0z1XWrqjrL+8JgWQcrlcaEuLAydosf/XbXXJQlIOgGCD/KgSXrg2GQOWOpv0gtJm5SZOyYZuITzDtAIt25aLLaTYPdNyQf7lBpk8nt6ymOUN5rJi8p/phgvIm/qxetDzn7wzTXtF8aXEqsxwrVmp+SNCj/UFKA1EIufzlSWfJyRPfHfRbL8+jTwDtyOhY4U8b4oS/tuRCvnovkKLS4snreO5j9bMQntGXx8hdhq3qdKk4sGI0VneTNtMfpG1oiEbR0CqkIVpy6adLLZlEAinT8l0gJlWKEARyKVDbCJ5bYqI1Jx9QeUmNkvLnW3DsVsuGytUlMuqCRjRWrX4JKmqxwKema6DhKgQNGzYMkUhEvgn24osv4p133pGOftM5ukb32HmeHkIpDGi80b0GU/fRhCH6W3qWYt6tTYBpuct5+ccJk1ZJd0VvIA4e5vRZup87MfXpo5UgVEz+ysv6jrm44kGRZppBOGwklNoSm7ZCm+WLwVAM9jjrEFw/Ucz4O2iA1M7bWd0lwvDLxM/jPpphC2HBsldIzOZfUMsQq+i6x3KDFt/uuAhqWY2EjdwShg2n2frEUVLIOfCs6pw/zSntQp60OJVZDlNagghAhJ6/vOksNV7xSSFYoAt5uuBRCq2UCT9t6XcTfdR7CSioXbtyEI42q3h8EJ28CK9e9mep0ZHLYXJZq7Ss7t4sBKFx6sgPaXRmIohU1aKZlqKyBS6NlQlaDiKtVaKuiFf513ciE61UBzVotU8sfW7IrmrU/bQi4kuDlkZLXQIwLWl5L/sNXjyXw0jbc/jhh2PkyJFYs2aNdPSbztE1J460PISkEaK/WfyfkIpomSwscgLW+wvwXZum5ICKKdZlLmKvuZg9ZjFm2TYM52WvKZiKxfiDaTN3bmN00DB7Md1Wjt756y90r9+E3Q92FoBoz4zja/FyMNyCXy/bhkMnHiSXtP7aJWbK4jxpdiikjkXGXgmpIbBpdrw4cOZRck8GaRyclpwmHzVBDsaOmJaZdGifEqHlx0Au5Tgtawkh5wIZv3WvkhP2tLiWWakw56+AdJYEj/g07RctYRrCkSYgmpY6lcBJm5rtmhm5xGdZFhVl69GW/OBW74RTfF6Uol27UcjSk5mdpmoLgB8vSpRcE+S6ROcGaUWEYDAJ3ViezEDMuNWF/kdOC2P7jlA2q4SQdEsvDYuZjraUpnGR+6GM/UHBqUKlTZaZJE64LatFIkqL1d2BJo902vEKc6CRd08QvQl2yCGH4LjjjpOOftM5d1ZhDU7RhIFrm3DkV2di8X1HO74xZkd/A0ou97w5S1v+yStQTMc1tGn5PrVcdOvzmG3TlNBSE20m1peT9DDn/kDbuJw7L5xlGcqR6bjtDMqTdj9tnDZrZoKFaX8zTNtc/dR0evjz58+NYOUZnKrL7sGfbnaeucjXnZ1eixeD4aHYhtUbtI2/pBlavcGYFf9Of/1b1wgUuOxDe4XMS04kpBhv3QhHS0m0QdUcptMyk0gnvYGlL99M7ToA95Hgozjpklp5bCxrCaf2N9EGWbnxVT9vuuaVFtcyy4MepuWtJfNmcpdlND/ptL4Jpb3RlDc+F9zic8q3pjHUXpX/3eXjpMBJ95+BQyz1QFBdyM3EPzLCJIK0pXM3eNc74RafV7kU267dOOlLFVjt920sQabrLOx5Im1w/qZcDntrVQPGiWMN462xzXK74J+1JbNCPpr4/gr8+uMKnH2IOvaC3vKipZm6BDKZBOpm1GkbfovcdKu/ASWFkVRci8OHsOHXH2lhaFOxfDNNyD61zWoZj+5vq0SrTcOSimvhkkvGjP1EtB+KNkPr18jN9bG0ZX0zTNtcbd6jJJcXZfrUPTIPVZhDm531tNR1IlaAJsg5zIFJyQ2oyrejKp5TAzjDCGhPxQ2b5JtTvTYO9zNo4CrVgFQUIZVZv8kfExo33/Rb/PqQUy2vyfcVj7X/FldWFJgWEoaSsQH9xhEzcCj522HTT24Gnv6u6cOISzEvRO0DMwA4+gS5pNHfBaB+BZcZE5CL64SAu/wJ3Ozr47Th0bXkHpz+vvWbRX7ozmb9fyOIYYqk5EKQfIvqjKloulUt31w7C5DfDWIYhmFCZ69pePGbo3FVO2006iteR9Py0bj/UtvaoQ9oqaWQV84ZphhKvhzGMAzDMAwzECibEESv1ieTSbz55pvYsGEDxo8fj2g0imOOOQaxWEzdxTAMwzAMUx5CF4I2btyISy65BE8sfRCzTp6ALx2wOybtMwLvbvoUr677BIseew97R76Em266SdolYxiGYRiGKQehCkEffPABTjjhBBy09/v49fwDMGGsZlfKzKfbd+Ca27rwq/s/xEMPPSw1QwzDMAzDMGFT+o3RJk4//XSccsRm/OnnUx0FIGLX4Tvhpxf/CxZeFcGZZ56J7u7830UoHGW11/ZBq/w4+6PvMvj5foMd8jeAP6cwJOA6ChF69dnjGdQtVxdD0GezEEqRTjulCZP6qyK+XswwQ5DQhKCFCxdi3M5rcOMPTSbWPTjrpAm44OvD0djYqM4wpaFwAZA65NxHsIQzCwVksdh8zX7dC8tHvfpK0pAfZLMNFE7nSkzJB06b3R97cQYt67z+9HgLnVCQv3gWDc3OH9McMIh8tKVqUB/620vquVWuV1U41gN9AC/b6+vFDMO4E6oQ9JMLJ+fsiz318sd4ZY3VcOC6d7Yi9cJH2PbpDnk8/7wIHlj8R/m7tFShsQA7LAZB/fUT5OCeRGWBNmEMOzTCtTcgG9e+hKpDNnNy14Xz800zEgLk11+ln1bUpOKhz9gHMx1NScTaVR201iBlqqOgZe3HX0dTApGaGnXkH/InJCCL1eqBSPfypMhHYVbKC0YKOHGgVdWvcPZnzK0epBmHSIKfLYbxSShCEC1prV/biSO/+Dl53Pq7rBCC/oZb7tmAh5Zr1oTXZP+By/7nTfF3K+ZdL7/JjpEjdkbVwSPw6KOPymNf0EDf0qFmsGIgSFtnSBbNhW061TGXBg7zjMvQBnj5s6L71/xSOsy3y3As/p3jIwqevXtoNWQ8bZWiA22EyRZw4VREUPS3v+XsOSrGDr0n1z7Z7s/2jHVGbJ75etVfcTiH6VW3bmnR2xEZhM7on9Inl/OXr704U7tggSFQVMVQgww614vfQcvahz9KWwINmFPoy5yiTZI/p2+/mNu81Wi2e71LZDs3rjsP+noY1jrM+TOVs66p0+uLXO9qSGOhkOXsVsMtYerpzNMvEW55T4tIIkIAcptc5KuHqjlktmFhLs8Mw7gTihDU1dWFgyaNVEfAMVM/h6tnR3Db1Qdg5G5alB9v+Qy/azoQ9TMrcN6p+2DHDm1/9hcnj5L+CyKVQGf9ErTWZJCId6KeZrGZpJwZ08yIZlLOFnLF/XVtqFQz6oZoCm2qM/X2p0OdbBxZqRlp9DU7TMWN+KThPdXTWmfhmg2ZvLM5OfilkDT1dvS1VdRQ71iFxlJosNJJpKKx4mbw0lKyKQwxQEh7PJnOvB11x1y9fFW5kL2a3OjkXn/F4FZH3jinRW9HrWLSbtGghWUSIGhZ5/MnhCRNmVOLQptCOqmMRNqwt3kqIx3PeicBg5bWVFmT6y1g9X428z1jJKTWddbLa/Tcp9qsgld3RxtSNfWWZ6G7Q0w4mo10UDpzYXr0S+55TyMphNHKrFnIMwn3fupBGeM09wsMwzgT2nLYbrsaQU8/ak/1y/hNWqI9dt9F/q758p7YaSdt2Yz8bd1aoB3jaENu1hQtUFVd02rMqKtjYuYrp9N+WJ7rZAv5uqk5vqqY6PlSSfGLOr4atJoGxtp6MbfPqylRRvBMvZ2mrS9+gM3NUsUUtabeKkw5aTT80C06cDkblpp+MSAgC93YsiNisEtkrPsvyDhhVJSZHmvw+nPHqY785DKMtPgh3RIXgqrxDBAFl7XCzR9pJ4IuZ5FcnrNWrSPiob015jafI0+9S8vbnmlxejZ9PGOiDHXhtKI6hqhNcCSL5jUxa3orahst6bDUu0u/VAuPvJMFdRKoO2MmAcmwUu63Hsjwes6SOcMwroQiBE2ePBnruw1BZvX6T/AfbV2u7vHnP1J3avuEyH9/J5NIQHTFvVTjBTGpUoQgkB2f6Oh0wUIOQpa1AVdkZ60P0mJgSaJIrY2CLBrrnXBlm7HcoGs2dCetHvsRhMgqdB3NhsmfmJnLPEdgHxt7Ea0sSKgtOXod9VNoaSROA6pZ6xe0rF381a5vQTzrvJyVnzQ6M+pnIbjUe5UKr5dQZcLx2fTxjFm0VRW1WGDW7pJgBqugKdGFRuWk9qxorAISLW+RQEZp8FsPkyrLJ4QzzEAmFCGooqICH34yAisz2kboT7f34NCv34D4zat7uXOuXorsu9vkfbRB+rH0RzjooP5v4ZqWNtpp6b2uiH0ocgmiUh2Ijk8JFjnnZznLpPqWmzYdlh2KxUurQdfyIgWJKBraTYOKyrvTQGfBvoxD/tTPQLgJNW5p8ZvOPoAEoDpSDJjLNWhZe/ij5SwSkCzCgzrOL/9WQYzHheNS72kf4bk/mwGfMYHzkl4aLVoF5MLzXj73gdyDJwQ2ByVOIfWwXkiKbISUYfIT2nLYFVdcgcYF2t6eQ6K746Zrz8eIESN6ua8cdTC+WbOXvO+Gu97GsV/7+oAQggj5JoZJVa2TU0OLmZvXzFCq9aljVYKMv70nvSFBJJtNY3kyUtiru/os1r7p1AJtBu29DCAR/pvs15zClPnLINFknMvl3Qu158m8z0dbCini7Rw5yFj3S3ilxX7Nb93akTNzl+XNIGEaApCxBCfxU9YF1pHlbUFy2gYn+dtpRceO49KMrR40jZb2O1+9U3tPxb0nH72ezWKeMVFeXq/F57RS6nnIi1feRQ5jtIdooZFOWgLL1MQKqgfHJUiGYXoRmhB05ZVX4u1P9sddj26Ux/deV4kjvzga3993FLqqJuBXU/bAxAm7YsnNh2L0qJ3x1zVb8KsH/oFEQvTsJUTf2yIHl1Rcm0H56Aj9+qOOSW7apDdARJ9NexfEFFS7v60SrbaZYSquhUsuGTP2LNDyk1xaUtfI5d0YraiorUckEUciIjpKdY6w5EGfQXoKPBrmt1ZmaJtDcp2s5Vqd9pq2n4FQ5k+Wk+bXnHd36BMFrSJvxh4k2kwabFlGR4QpX/s38mEP07WO8tStFzQom/Ovt6VgYWqCqahU4VWFR07VbbCyDu4vH7SvKtPrbSVRD2IQ18uaNiQbWhTveqeybKfv4ahr5JyelV7PZsBnjDSsUghRxwZqT57eXuo6EfNRfx3dXnlX6TalM47WwjbSC2EsmamB07yFYRgroZrNyGQyOO7Yr6DpvAm49Mz9sP2zHfj9wxuR3bgNewjB59xT98H4McPx8NObcG7zatz4y//Ft7/9beWbYZjBAgnPpRKqygu9ZUZv/dk0bv0YevOsrXIgljXDlJ/QDag+88wzaG5uxqcf/AWXnbUfTj5mrNT8kM2wZS9+jN//30a8/HYFLr/8cpx11lnKF8MwgwpagpOaw4EjTAxE5DJpMjZwP/DKMGUmdCFI59lnn8VPfvITPPHEE9i2bZv8knRVVRUuuugifOc731F3MQwzaEm3yCU/HqDDgrRWQtA0v9XGMIwnZROCGIZhGIZh+hOhbYzOx8aNG/Hkk0+qI4ZhGIZhmPLSZ0LQmWeeiXNnn4Rbb71VnWEYhmEYhikfoQtBr7zyClavXq2ODMg+2PlnA2vXrlVnGIZhGIZhykeoQtCrr76KaSfGUHXc8fjoI8M0hs4wzVxYH0ObCWf4+n5OmNArxAG/legbenXW77eH3KB0FhtGMRSWh6FTt16Uot77hjDqr3+0iaKhTeaUD+m07yBpOOeP3hrL3d+XjZFh+hmhCkHr16/H6C9XY9i+k/HWW2+psxpbtryPqQej1/mCkZ2B7euxTuf6CQN3QGKYgcHgf8aEoBNPoaZV/3p0/s8O6Db/ijbrwTCDjNCEoO9+97uYM2cOPld9Ej43bQZqa2vR0NAgr91888049eRP8a+nAKnUg8ULQkVBX6cVHQm/tjsI4bod2IRRf4OgTUhjsG5fhOY2zzCFEIoQtHLlSjzwxFMY+cPrMOHMuZh4aQt2zP4RfnNHO370ox8hcctVuObfgJEjgZb524TA9C0899xzynfpsZh6MGmIvFTEHXNJxaxUyzZ/ciaWO687s0q6N3pcms1DwxyANV63+Gx5KECdbfZn2CcibHmwLw9Y1O1uM2s9DCOtbunUZ+fmMvebDbc8eIXpWrc+NIdh5EH49le3tnqwXCugTbiVmTfubcL7efDGMZ3Kfpm5XVH56uG61p/CqVx0P27PmFeYpX7eCa8wvduSez1IXIwI5yszL7zaEsMMaug7QWG466+/vuf444/v2fu8y3r2POmb9C2inmHD0HPG/0PPR+vR0/Ox4Z5KoufggyDviUajPa+88opjmI5u2fye6ur5Pctczq1rn91TPX+Z1Y/NOd3TPrtahDG7p32dcTy7fZ38vWy+uKbfv669Z3Z1dc/8ZYZfL0d+9XDMznd8tmtezu7PHLc9DBm/fq8sPyMtZmf4W9YzX+TbHIZXOuU1cb9+XZb57PbcvW7OKw9+wuxdt1q6zfVlvieMPMiyNZWnOY517fMt5WyOr3faDZc3naZrdKxf83LmMPRjPRx7Huz3ujmvdFramdNzLJxTGXiVC7l8+XXy75U/Sx4KeN7tYZrDkb9d2pK9bGU44j55D/mxO1tevMrH6ZpnHbFjN8hdaMthl156qdT6bH3zNWxdtxrnnwM8eDew6H+BMWPUTYrqrwD33wn84qfAuDEZLFu2TF0pEamkaVbnn5pWY62dLFdnOteLX2kkxUwzZzldWqd2sJIdAPf4atBqMqBYW1/japE8h7J8bfaXI92CRMZqFZsMeUZVOWkWu5s99hksFzPVOLINZvtEPtJJFq/V9YrqGKKZTu968cqDTqFhQhm9NJmRX54EGuZQGCHkQWGuWzIoqrfJitpGSzkb9a5wbLse6fRTZk7kaROEc/v0Ik95VjWinezHLuyQba6mtYAvHQd8pr0I43nvVe9k3l3HoS151cN6ta9HWo+HKFf6Ta7Qurbgo80zzCAm1I3Rhx12GLY/l8KkYZ/igUcm4IpLvoBIJfDY4+oGwY4dwLkXAnXzjsQb2R8g9o1rUF9fr64WD20IbK1J5SxOm9XvwahCpegEc4OoGHSSmShi1UanVVLk+r+Rfun8r2+4E610HHCqRKfYmQEiEff8ZBIJkSJbnn2kMxqrVr8EYjBZUILP+wcJUw44+iBK9YeYNlCVKw+TKkXpKUT8tCykxyct/itc226Z20RgfKRTWtfPJqSVeL9jeemfaS9K/LybhGantiQpdT14EVZbYpgBQqhCUEVFBT788EP5raA99tgDZx19Ija+B3zjW8DzL2r3/ODfxH2RK/HUU8vxs5/9DNdcc412wS/mAcWMqSOpalQzpiWtiCTqiu40IxHxXyqudRh1CcBTa1IKTLM+3RW78dGuwVD7DNKq0/ci2tCuzeDr7PtCQkhnGMjZfAo0rnWTGsg8GJUjD1TWsn2m0SLbT3suLvvbO+5tt3xtoji800l7Y5KxViEIxQt6Lkv9THtR0ufdj4ATSj14MUCeW4YJgVCFIOL222/H2LFjceDIvfH9mm9iyt6fx2efAedfDLwhnuz7H54orcwHpiKCiJjJmFY3tOUcy8Cmk3+Az4u+3GDqMIwlofxMEgkoSNWsBux4oZsVbeVCmyZzE7yqmOj2UmgzDRzaEtgc2UHTUkAqbhdwrORm4/qmzaDp9MIrD0VCecxm01iejBhLD2HkwQF7+8xp3UTbajJpgqyY2q5XOoOWWZ42EYh85ZluEWmjpZ8queSDRFPezca96f1MF/yMeVHk824gBF5REc79kokw6sGLMrV5humvhG5A9ZRTTsHkbaNw5tEn4rgDD8fdz/0Zd6Ufw2OdafzqRuCZl87Fbbfdpu4OCC0piBlabvioac2tk9NbD5Zxxesaoa7Ttc76JTkVPQ0mdZ318hrNXu0DC2lH/HaOlnh9xEfY0+orPnrrSU+oiKe9sg1NaFb+6A2UuOhuFaZyIWT8pgj1+CgdyZgRt5auKBratb0PbumkMmur9F9GOTzy4BWmPR0SSx5V/m35JkqdB7fwCGs516ChIYuEqvdeebCl1TVcz3r3wr1NUFxe7dMLx3RGFso00rdu9CC050prS2iy5Z1Q6clXLoTlHjd/hOlaqZ93x3wrP95tyfvZ1OoXQjCzLsXmy5/bNcIrrQwzmAldCEqn0/jTn/6EX9+6AHec/++49OFf4eyzz5bfCrrwe+9j8/Yf4rrrrlN3DwCkwNWJenMHJM8lEVOCAMMwg4Qinne7YMUwTP8j9OWwqqoqXHvttZg4OYIlr/4F06ZNw9VXX41dd90V27ermwYSDuvztK8kgwg89hIzDDMQ4eedYQY1oWuCdG688UZpMf6GG27Aqaeeiv/8z//EnXfeiba2Nhx33HHqroFBb/U47RkI8JYQwzD9nqDPO2uCGKb/UzYhiGEYhmEYpj8R+nIYwzAMwzBMf6TsQtB7770nvwi9du1adYZhGIZhGKb8lH05bP/998f+EzZj5brP8OhjKflVaYZhGIZhmHJTVk3QvffeiyP334onb/sSfnTWBPzxj39UVwYb9J2PGb2tP4cBfTNEWbSmb5sUYt07eDqd/dFG0CBf7iV/gb7VVlTeg1LGuh3kaHUmypJciT7WF0aYfQ1tzC7NF7FL3Ha57ylp3zMY2+5AoKxC0NatWzF+zHD5e689h2PLli3yd/GoB8PkzG2odJ2IQRhhMkx/ptRtnr46Tl9gtpsKKYYwwmSYchBW2+WxypuyCkG//e1vUVU5Wh2Vjo65mkVz/bP25Pr2tdQqNFI6ymF/R9pO075ZUkFGjgoyvhg0nWXMnxdF5T0o/STvDFMwJW673PeUue9hwqBsQhDZBxs3bBW+XztRHr/59la88MIL+OlPf1rcJulud6vOunqRvvGRSdQZmiKTmojUobnzJhWrLj2bVZTkLV+YXirNjrmkPjVrrcwq1N7aLF3d6kmFyZJ5VaPROZC6tqVD5U+Ek+7QrJWrPAZNp5c/K7p/za9d7SzDsfh3KxdbHZn9uOU9D175c6t3wjXvecqaKLSdyTBt5eB4zg15rxGnMRO0tTNLGp3LRU+bW5v3KjOv+ILi/Rx541YP+cJ0bYMeeIfpXS7m+KzfKAqWFte2Kwhcntz3FNz3SFyfTXfy5cGSTpUHvbx8j3+m897P9CCDNkaH7e6///6eL+y7W8/HS6b1/HP5tJ737j2g5+eXfKHnP+on9Vx65sSecWM/15NOpx39+nHts6t7qqtn97Svc76+bH51z+z2db3Or2ufb/FD4ej3kZ/qauHmL1P3zu6pnt2eu9ctTN3J+5Vf3dnT2Ss+/f517T2zRdzzlxl+C3bL5sv0UxhaXub3LNu6rGe+rZwKTafu3Pxp91E8Vj90zZwfs397fOaysJSLuter3P24vPF51HvunClN+co6WDvTytBcZvaycHUyPdZ61p29/GRZqDDt5WK/l+J3KnuvMvOKT3e9yjOPs6fTqVycwvSqB3uY5mv28M3XvJxXmPYw5L0qDnt85nIPmhbdOZWLVzoDOe573J3Hs6k7t/y55cHpfrMztx/7ebf8afVmXJdx2PrBweJC0QR1dXVJUxm6q7/gPNzTejD22H0X/P2DTRgzbk9cMSuCf6+fjP+5LIo5p43B3XffrXwXTu0CWkcFEnWaxOpHsiYqahsttn/Isnimc706EkQbcgYGK6pjiGY6LbOEINS0GvaGjPjSSAppvSamxUWzDHEJ2WyR67gi/fqyYKFWqJ3T6YflYlalLU8WYoDRHF9VrAZIJcUvKpcatJrWNmvra0piIbxXfNmsdkAEqXePsg7WzqowpyEqikGPmcoiioY55pCd0ayON1vilIgZaCJDVtuNC2S9PSrKWo8lcL075MFPfEHxrD8X8tWDc96La4OOYXqUi5h6a1brTfEZlOd5KKje3eC+xxHXZ7NYCn6mfOQvSD84AAlNCLrzNz/HLt2/l67tqok48oufk9d6xL8PNryNjeu7cu6EQ4Zh0R0LsHLlSnlPEPRNZUs0acim7nSBDCHqqkDhzFbTiWisWv0SmNWfJacKlULoyQ14Hkt8/Z1MIgHxmBeXdrneLujOIitCi5vqKGcdvdSYHvCS13vAdiY7Hr1zSyeRqqn30Xmm0SmCj7gZtgpp74JTHiRB47OVWd4lGj8ddJ56cCSsNhikXMr5PAxA+n/fk+fZDAiNfa01Rlp9KQF85K9841/fEtqeoP0njpCaHnIzjx+vzmqMn7gf9p40OediX/sCZn99DB544AF1RxGIymqm3fV5Z4ZptNQlANOG6r58o4T21iEV1xqjTFcIs4UyEBXlqcmheQYtL8hopRgkNMRsRdVPzoWxKTIk4aC2ooh2JtpyLJoCycbpZMrQFHqiCdSu2IUFBwOhJSVofLLTNdd7ng44b/0V87yH0AYD10OZnocBSP/ve/I8m0VQ1ainsRWRRJ3P1RBuS0RZ3w7TsWuCyEXGbMNnn32m7iiO5UkpbqsjEu6jrmrMnFQuZolNfmaGCq8wC0bELVXgpsZYiDq3v5Gbmdg2e+aW99ItnrNwqTKmWYgSAuKh7sgTg6OYAVlmPSEQtJ2RijrVNhdtWWN5IR+0hJCKOwwEVTHR7aXQZuogNfW8v+WKgtt8kfH5o7D6K7gewmiDHuWCiggi4pqhFJ5rbIwuy/MwsOnvfY/rs+kDf3noLWg5PrfclnL0iRBk1wSRe+q1Huy3337qjgIQDSKnzlMuEWnNrWUS9GA0IGHcIyte7bmIq3N1nYgVoAlyDlM8RGq3vWykumYnX0MTDbLepM7Und+9TUEIlE6BX380M9HKh972EIN5s1qmpPvbKtFqK+tcPQiXjBlr+rTfqyGr4lGuFOVixOd/D0GQMuvoLq6dyQEzI+IrQEijttnekLW0J63M6PVibaaon6dnxa/A7dbm3fGOL2gbJNzqzz3M4PVQ+jboVS7iWqsQkVQ66zrrLRqroGkppqxLTdC0+PXXn/se92fTO39eedD96c7+TLs9t2H1rQONUMxmkG2wn87/Dh775aHqjMFHG9/F1s2bsdMuu6gzwP0rtiKxdF88++yz6swQg/YqiE653qzyl+eSiLUbm/aY0kCdRmd9X39Lyi9ptMxoQyW3gxwDq/4YhunPlF0TtOtuI7D7nntatECPvbwD5513nrpjCOKwH6B7eVKc0z7GxQxd0i1xnxuiGYZhmEIJTRN08sknqyNvdt11V3zve9/DTTfdpM4MTejjVNbN+bRHaHDuxu9rBoImIdce6DVV3vhqgTVBDMOUirJbkWcYhmEYhukP9MnGaIZhGIZhmL6GhSCGYRiGYYYkLAQxDMMwDDMkKfueoHPPPRfvvPOOOrJyzjnnSFcu6ENk8psMRI3120Je1zTo1eU4UmXYuNr/NoKWL+8MwzAMExZl1wTRt4BeqngNb8z4AF1fF8LGt8di0/cmYVXkHaxbt07dVQg0IBsfe5LO50fA6CNS9HVmp8/ne11jBj4kWBbaXoig/iT07SfyZ/uarb0NFxoswzAME4yyCEGPPvqofGX+v/7rv/DJJ5/gpPqHcMipl+GEc+7BjDPvx3Gn3o5dJgzHsGHDlI/CqWk1TE7Ir2CGPpLQV1+Hpq2VgZ53ev1cflVctpdW1KTivr6UGtSfTkdTApGaGnWkkIJRHDC1X371m2EYpjyELgQ9/fTTuPjiizF27Fj5LaBRR07D3ocfpa6GA9lbgrK+TTN3szxEy1zFCkgyDH3mbgurYy59qt08szfbiXHQWqlPu+fHLUybdsKmZbBc8/Lns0xc807mS1o6VJgiT+neWg/3dHqXS8HplKZUbPZ51DkSOtpSUTTM0SUNzZxCXptYQf0pqNwSaMCcmDqhSC8UgpEQgFjwYRiGKT+hCkG/+c1vMOOMGXjviG68f9RGfDpjGyZcNAUr17TinY2P4PW1N8nf5BBcCVR2vJfKMkjUkZkDbVbfEDUMJWpf/1WahPYGkO+aVn/mEFJxI0xpIFAJA90dYmBvNrQIZCNG107IgTenuSBnfHzRqtXQtGd+tBqeeU8l5N6l1hpRBnEyA9KKmkxSCjNe6fQql0DpVAYqdSOURHc2KwIVEoi0Eh0zylw3Rmi36m0nqD9CCFBNZMC8uRbWqk4jKQSryqzZ/l0w44oMwzBM4YQqBN1+++0YPXckRn1zBF6btAqjZu6KNz9YiM43rsM77z2K11//BVY+d510/9xpKx566CHlsxjSmlXpklqqLgyzYENWgzOd68UvGvBoHFapklZ8TZaB82AOsypmaLoqahuNgVlgxKdQ91mhtNSg1aR+IO1Z0Vbxo4alc3v5u6fTq1yCplMZyzRJQcuTQgjJaXGEXKLvz5ErUUJYQxZ+qiKIP9L2CAnIkn9Jt/BLQnNnLCfkOVnAZhiGYcIhVCFox44dOPvL52DCbhPUGYMdf+vB2KV741/unYL97zkAY7t2xqrhq3D++eerOwrDzap0/6EKlWJwzw3MYjBNZqKIVQdI56RKqS2R6IOycrk32gSktZGDqrqW06DIwddmtd5qs6P0uKbTo1yKSGdFdQxRXQCkMGHS4mQSqJMGa0nwaESVjMeHnbYg/tItiGcbPNqjVcirmtOAqB/tEsMwDFM04W+MFjHs9NHO2PPF8Tm3x4tjscfz4zBh7QTsum1XDN8+HOPfGo/I/hHc9ae78MYbbyjP/jFvjO5/ApBGJCL+S8W1wbzORTvgB7k0UynEhzRaZDjtubzbl6mqGvVyaUUkUWdaSiLbZEaZSRfSRufaCu90epdLwHRKjZK2JEbGaIVUpZ2XAmRUJMVkly1Xnh4E9JcmNZcQnixCnDpGhRCghBjlUxnIMAzDlJjQhKCHH34Yq1ev1g7+Cez86c4598+eHRjfNV5euuHHr+J/r3tF/h6bHYvhBwzH0qVL5XGpyC056fs4+oJu2lhrHdCDCmsdbSlE9UFdENFVESKOJtf8aRoXiRIQ9H1F5cIxnV7lUmQ6acktm01jeTKCekuYGSSaTBu2beVJabJv6g7qzxBClWut0Yyiit9UJzHaP7XQyB8tnWVqYt4CmY5TOnWCXmMYhhlChCIEbdq0CRdccIF8I+yZBc/io08+wgfHbMy5LV/+GD0jd8h7R438J3YfJaQk9KBnaw8+ffFT/O1vf5PXSkFtcwOQqNNm4W2VaDVpIPS3jqRgpGsi1IAb9JorYhCtNy1N6c7PZmTCWO6bgWRMX+5Te1/0a3WdiDnkT3e0wVgXMGoXaJuMzdf9pCVI3ju6PdKZp1yCppOoqK1HJBEX+bYKFTJMGNoZozy9CerPCxKSzPmLo9Xhw5wMwzBMGITyxeinnnoKp59+Ok6afgBOrn4fj75wJCqrKtVVjTc712LtqrXqSKO7uxvHHXccFi5cqM4MImj2LfeTmJZT5LkkYu3+3hAblHC5MAzDMH1EKJqgqVOnYvv27Vj12hYsWLQX/vzwEqx7oQvDPtwp555Z+gwymYzcPE2uq6sLmzdvxpVXXqlCGWTQ/hH1U4f2qmT8bMgdzHC5MAzDMH1EaLbDHn/8cXz/+9/HZ599Ju2FNTY2qisGl1xyCZ544gm5EXrevHm48cYb1ZXBCX3zxvpyE+2FMWlAhihcLgzDMExfUHYDqgzDMAzDMP2B8F+RV7z88svqF8MwDMMwTN8TuhD02muv4bDDDsWs06YjUjEBd9xxh7rCMAzDMAzTd4S+HFZXV4eetStw7JS98P7mrbjlybfx7nsfqKsMwzAMwzB9Q+iaoPXr1+OC74zDv84chUMPHIWd/vkpNmzYoK72L2iDrt9v0HijrKL38cfo6Js+Ab8z2M/ou/IsRZugeihNu/KJtJivWeHXrP4XYpQ1aFk7+wua98Btt6i89yf6Rx/CMIOdUIUgEoCGDx+OV9ZvRjQ6HJMO6sFHn2yX3wFatmyZuqtIZKdn6+iczpWY0glMxdOf0sIwjAE/mwzTvwlNCFq3bh2OPvIQfNz9EuKJdTit/mX8beFbePSrE7DzioX4ydXfRuXBB8lX5AcfVWgkEwkh2eIaenB5FoS0c6Z9Z6mCDLPls4tmIWhZ95M6Kirv/Qlu8wxTDkITguj7QKNHAPdfX4m7f/JFXDd3MqaN2AVf2W8kzv/qeJzz9b1x97+PxffPn4mHHnpI+So9HXNJNa5Uy9JZNUS6GQhpssBmoNx8TVdLayp27d6Mbo6DnNLd69fN53S802I+rztNre9GvrRo+Mt7XrMfCn1ma86n7tW+hCHvUSe88u51rZzlqePeJmxh2pcqpAbSuO6sAdDDMOff8GPOo1dZe1JRiwX6d5aqGo2BlNLX0qHiE2WRttoQC1rWXv6sWPPu1V40nOMj3MrMNe9+cK0/93p3Kxe9TLyeTUseTGEGrQei5G2JYQY5oQlBU6ZMwS9uvQsn/HA9nl31d9T/ai0+2L4D/3x7G8alPsL8n2Wkhiiyz25Ys2aN8hUGGSTq2lDZLmZVYmbVSnaq1NNPHQPZ09KNW5JtS53ujhagWTtPjmxGUSdSUbsgd2/UZBVdt/ekX7dbc9ewpqUhmkKb6mjTLXGkalRa2hvEbJYs43ubjciXFiIVd4vPmneyX+U8aPeGOvW6znrpj/KZarMJA464593rWjnLk/BqEx1z48iaylnaEdNHEhpA41k0qLSQ621XjAYvPQxtoM5XD8HK2oNUAp31lC9RdnEyV9KKmkxSCodBy9rbn07vvOfD3Ha9nttC2q4rHvXnWe8u5ZLv2XTrX4jgbb7MbYlhBgGh7gk69dRTseKZ57Fjn+/gr107sGgTGUrVOGOv3bBtxGE47hs/wKWXXqrOhoN58KuKiV4pm6VeSLNe7mKssqK20TJgkkXyTOd6dRQcc1qMMNNIihljTUylRVosN1m/LwL3+Kx5r62vQSa5XB3lgayg60JfdQzRTKdlNuqGc1o0vK55UdLy9GoTYpBMZGoMa/QCMs4bTSVl3qVF+YbmXFp6szwnBBjCkY96CFjWrojw9OiiDXN8CSM6QevIOe/5Mccnn1tR1kW3XRdc6y9PvRNByqWY/sW9zZe5LTHMICBUIYiYMGEC/vTQI/hk6rcx/5T7sefxKelu/ftoef2aa66Rf8uKePjzQkY8dbWycNJqemhUoVIM0qmk6pJE3MlMFLFqe49cIrqzyMJmud2+FuhBNFatfgnMyw/9hpDK02V/SZUYSjpF84h4GDvLJBKixG1p8FEP/b+s8+OY90KRe30ERbZdZ/LUXxj7ikrdvwyRtsQwpSZ0Iejmm29GZvfDxfTlcuDDLmDt09qFnh4cddRRuPbaa6ULjN452vHquMQ1b9JoqUsAJjW2t6q/eGgPJ1JxrfOScXtpFUqBmDWqvOXcINqEGUp52mfOyvhrWrQ0Erq8oCWR9gYgUWfdwzHY64Fwz3sBUFnnnttSl1me+nOp9+CE1b8M/rbEMKUmdCHorrvuAo44C/hDPcY8eDHQ+aB24ZgL8OcX/oJN6WtxfWsRQlBFBBExA9In/YRUbZtnPTlE5yNmR/KazR9tGLRPKHMzQzFra7LN1CaJXrNYFXwOEb5chjF1XoUsGxScFrk8ZOyxKCW5Jad0S8jaMw+ClqdXm6iKiSHG2H9BaEso2pISLUuk4t6DPO31kHtb9E2wIdZDf6NX3hV+20vumQ6pzFzrL0+958Pr2fTqXwomzLaka61sdScJeo1h+gmhCUGvvvoqTjzxRKz9cAtGYgvGbc7It8CGrXkceOoW4NMtwLCdcN7XgOG7KE+BqEKjmGZm4+JhowdOONocaB70Urlr5n0Jwl+r6N7UNdowaMzGqjCHNg7q/uo6EbPN1KhTlxskVZz6Rkn97QzZoeuaiHwdk+jA6mmA0MNSzu9mT7e0eFG7QNs4GSQ+N2ivhJjua+G1VaK1BLPb8pand5toXNKKiOlNH3M7ozpob8ha4nSKr6pR2wSrv6kWRj0EJVBZC/z665X3PO3FeG5nIBkz9hOFUWbu9edd7/lwfja9+5eg9dCf2hLDDBRCM5txwgkn4Iu7rcC8E4EbluyJyUfNQUtLC1566SU88sgj8hV6+mDibh8uQ6oT+PuWrcpnaaEOhd6GMe0X7H/QjEl0hPXmNXp5LolYu7EJkvEJlyfDMAzjg9A0QbFYDMnV++Lf7gCSz36MCy+8UJ4//PDDcfXVV8sN0Y8++ihO+d4NuCreB5uj+xMOewy6lyfFOe2jb0yBcHkyDMMwPgjdgOqDDz6IV155BT/+8Y/VmfIyIDRBAvrGh3VPEu1p4bc3gsLlyTAMw+QjdCGIYRiGYRimP1JyIWjEPNsrVia23mb6/C7DMAzDMEwfEvor8gzDMAzDMP0RFoIYhmEYhhmSsBDEMAzDMMyQhIUghmEYhmGGJCwEMQzDMAwzJGEhiGEYhmGYIQkLQQzDMAzDDElYCGIYhmEYZkjCQhDDMAzDMEMSFoIYhmEYhhmCAP8f2TtwFXUMkJUAAAAASUVORK5CYII=;" vertex="1" parent="1">
                    <mxGeometry x="-1460" y="810" width="577" height="117" as="geometry"/>
                </mxCell>
                <mxCell id="16" value="" style="shape=image;verticalLabelPosition=bottom;labelBackgroundColor=default;verticalAlign=top;aspect=fixed;imageAspect=0;image=data:image/png,iVBORw0KGgoAAAANSUhEUgAAA60AAAE1CAYAAAAMDwbYAAAAAXNSR0IArs4c6QAAAARnQU1BAACxjwv8YQUAAAAJcEhZcwAADsMAAA7DAcdvqGQAAHb9SURBVHhe7d0LkCtXfSf+n73ksZgqKMb8EdfoXja62MVcJxseFrHHmyieEC2sqxyj7AYs6nrrn7lyVs4mG7ysS2tmamsmWZVDeAa0WHdIAcXYpoJw/I8XUJExiuOxg4x5JL5D2VjE94pr5MXXWepv2OtN/jv/8zt9uvt0q/t0q/WYnpnvx9W+o36cPqdfOr8+p1sXnD9/foeEc+fO0T/8wz/wnwAAAAAAAACpcKH6FwAAAAAAACB1ELQCAAAAAABAaiFoBQAAAAAAgNSa6jOtX/jPZdo4rT5orrplgxa+Wqb3PahGsCNl+tB/vYIe+c//wbfMVfSejZvp58Vf3/xv9jKvofL7/4DeluG/ha9/THx+SPyhxtMX6DaxDnrnh+gPrn2Fu9zV76GNf8cpCWoZzsvNb7BGiTXQx8rvI5mSWlYaeNMDAAAAAACA2YhuaY0RyIbN8rb/ukEbGxv0nqv5Ewef1mc3SHTHbfzXt5ETDnIAK8e/R8zxEL3vv31TTbA9RVtf+4H6W4SaX+UwM4YH/5S+MFB/B/n6lgxY2VMPPULuGgAAAAAAAGA3RAStP6Av13+X3nf/WfV52Nkv/heqvr9DP1SfJ+sS+mdHxD/9p7UA8jX0GjHODSq/SVsPirFHXiM/hePlnqKNj3whNBi1gt+rqPxOkdbpLXrEFOACAAAAAADA1EUEra+gt9x2Gx37yh8EBq4csL7vbwv0X95ToJeqcaN5iN5XLlOZh6HWVGHwCG2dFuHmVVe4rbB0iBau0oJK2Tp6lRhnTQ13iP7175TpNac36EP3BYWtVvBLVy/Q2960IEJcb2suAAAAAAAAzF509+B/cgm97b8MB65n738ffVgErO+5pUCX/BM1cmRa92D7WVMmAsv/wIHsLVu08P6NoedID2lBpWwdFYHmFWqaUeZt9K+vJnrqrg/RF55W42yqa/BVbxb5yBwSIS66CAMAAAAAAOy2eG8PtgPXB98nA1cZsH7tCvrdsQJWA/lM64eozN15b7lt+DnUzBW0ILsIf4j+9EEVaMb08/+On5MV6d7lfQ7Wfi72ofdzy6/1MiZ0EQYAAAAAANhd8YJWxoHrbe8Rgett9AfTDFgdr6C3cXdeDjCHnkMV0379KhFUPiWmXkULzoud4vh5uvkWf19iu2vwe6xWXx7kPOgiDAAAAAAAsJviB62MA9eVT1LjP00qYNWeaS1/TISOPqo7L3cXHnoO9Q0LIlwVrl6QP4czkjfcrN5obPnBfX8qW1Zfk73EGsFU+noX4afu+g8qr2W6LfC5WAAAAAAAAJikqf5OKwAAAAAAAMA4RmtpBQAAAAAAAJghBK0AAAAAAACQWghaAQAAAAAAILUQtAIAAAAAAEBqIWgFAAAAAACA1ELQCgAAAAAAAKnl+cmbubk5ORIAAAAAAAAgDdDSCgAAAAAAAKmFoBUAAAAAAABSazZB67NNuvr3M5SRw010vxod7X66iZf546b67HPqJpUmD1dT81k1fhfdf2eGrr6/rz7NVvOPM3TTKfUhUMT23CU3vrNFL/nI4+rT5Mn0b/mq+rQ/jLrNJrkNPnaLSIvTk8NX6MtqvG4/bvNJ2JXt8tiX6KIPP6w+jOuvqXfllXTq+N3qcxyP042rXwo8TuLp0trimvh/PK3KIlVaA/UpPl5uLe5KJmDQqtDi4qI1zHLFM5K0fNH7gY8HkWalpT6PrrvmP0bGT3Pa9vvxsrek/3g5MLpr7nmxWCH3tMY+ChZvuwxfI9NhpKD1W//jPP365/t0efNJOfDfPM6IA8uPP0qr7x3QgIfriW6YSNAkArB77qXrrlfpvvdBqlysJhnsZlB5kJxpr9C7P/ZN9cngka9Qi36Kbi9dpkZAJN82k4GQPoQFRU//eIzAwXXz+0v0/F0luv2QGhFmQutjp++9T5XvPvrYWTUyBivADg6spyHW+ia4XSI9+zC9/vPP0+3lK9WICfmO8e6Yz2W0uvA8/drIgbP6cl2sUUf8VxN/78W6etiXf6bUpM3NTdqo5tSY6ZtlRWQ3yrefHYTtmdaKMrjStY/Ed0StQ4X6pjw3NjebVMqoSbAvxQ5av/LUj+j/vu8sPSaC1H/8Pzty4L953IP9H6u5hjXvP0Wrv3UHXaM+07E7aJU+HbNV9Bq6gwPSf19RnzXPPkmn6Dr6jWPqM8Rg2J4TNvjmNn3r87fQr0fUMj9293NEh15BN1+iRkCkwG125eUykHz+j15Nlz79vaHA9VM87a5fpreoz9M26fXd98ALoowvpxK9QJ/42t6t1Mx6P3x043GihV+i345xQy+eX6Dcww/TsYfX1Od4jiz+Ov3ZxY/T6zd/oMZE4YC1Rv3qBm3WCyRqJbJSspxXk+EAy9MyV1CbJfV5EqaRJuxfOF5SYdCnPhWoGPi9gH0UbG9vl1hB6//+/3boT7719/Sj//1/1BgXj7vj68/JeYacuolW5laHWkDfKgLNT/9N32n17N9/tdPN1+7eqo/L3BnQofiZR+lJ9acfd5N1llWtunZ6N3yX6MmHrghM27OcNt6UT6Yvx+nrAtPk1uc7m2ra1dQ8pbpPay3QnuV8Xao904ZarVUXYN9ypu3Z/GPuWh28XFL5Wz9H1df9BP19p0b/9oMhLa6PfIVufZqo9I43y4+yleojw11e9fHeVkW3RUvOIwK102e/Sm9Q099wb0BwI9bpX9abptuSx+PfcO9XteneVr6wvDC3ZdAa9LxYrXFq8AWXYXlx+LbZkEveTLdzo9rTP5DLetbly2NU+Uz5DDOt9XW5zFe+jvKHiJ544LQaq7aXdszIz3wcqO3P24roObreTtc/rzNYef3yR3ier6hpIn/3Rh0v1vio9Zm2CwtK0x5v2mZGj32JbqXL6BuLr1AjiL6/fCWdWl62uvheeZxO370s/uW/l9UcqvuvM9jjRRmPB4+3l/n23Xdry4q0v68mK28pXka09ehQ2QPJykiOigvWbfPc/GH57+js1lqre7G/66nscum5sWbP7y5j42VDu2d6uqhZLRF2d85ah6jXKLvTx24u1vNoD263uKB8jpMXu2VF757qLubLywhd8YzbM2Q/mLrItiq8DeLtP94OtuRpmvdDmN3ZnuE8y415zFujTeULTtOeN+m5kqQMofmU5fKmoY8zHS9SyHZhpu3pmebf74Y0w6eFH0u8Ln31skxqRNgxP+4+SpZP8zlNZ7app/7UmfeRb31yqFj5W2up/SDW221Rhaf5tpuzzCj5TCR8u4QJawW393fUsauXT79GMk/Z4+7zaeCfvOHh7Nmz8t+g4Yn/8f/uvOmO7Z3XfOhvAweexvP4l/vCn7xs58ZH+e8v7Nz43pftvIyH931k5zuP3rjzpi98R06X4/7kC3L+73zhTXK6noYcp6Y7n+209MFJ48adj3zPXf4j73uZXJf9mdepf9bH6+vRlzPl07+cnn5omqL8nB5vGyvtG3e+ILfRm2Te/WXWB1P5+O+XqTT80+whKO04ywUNT/1pdeftb397+HDtr+4sLCzI4fjGE0PL//kfbuy86Pov7vy5+vz+m8XnP/zW0Hy/cf3Gzvxnn5L/vujmv/SMtz/LZW/+3M68+Pz4+aeszypte77He3+5M89/+9eppakPcjkx/MZfDc/753/opnHeTlfl/fHPfs6znD7o+eLPch1qOVNe7MG/zXjQ0wibx79eHkzlM+XTHoLSNE3zr2+o7GHr+6svimmf23l/z9624fmSn7VtGJZH/3z2Z2vb8brUMSTG2ccN59u033kwbZOw6WF5cf5W63Y++/ZD2PDnn/j4zuv+e98z7u/e8/qdR1//b3Ye/7u/23n834i//80nd575u0/ufOP1r9851eHp73HnV+MffU/Hk4Zc7vXafOc7O6d4PpWG89m3HA9/dPvHd37ja95xYcPGcb52HN+57bbj4vrxVOA8QQMvZ83/wM5t8trjLsvTbnvAnfepjeM7C7c94Ezj9W08ZU174DbxWU3T/7bnddJ94DbPcv6BlzXlX89DnMGTl6c2do6LMtplMuZTTTflJWiQafJ1XKUr83t8Q/7tT19uQ19ZgspnyqdMI2Q/2ENQmv7l9DT9aQRth7HS9O0H0yCXm+H2NA1BadmDMU3DMW8qX1Q+eXqcfOtD0jKE59O6boRdJ0zjIrdLSF6e2rjNs0zcbW2a5t+2/NleP/8d9zroTyfJPhonn0F5kfnlfecffPsjaB959oN+3so8Wn9bx8ZtOw/IY8Fav2kf+fPp39dJBj19+3NUmoHHpBh42ajj2Z9nfT/7p/nzNsthqi9ievLcUXrjK7ml8gY6ddUjNLj+OqK5o5RV06WXrtLgBqvzcPbnjtPRHz5qbOXLXvOgejZWpEXX0Z3yeVYx2Glcc4enZfetx47Sk4PvqE9h7qfPflekpdJglWuuoydPfVF9EgLyyS+YWvEt54pIU6R3h+rafPSq97rdp23f/Wzgdogq33XXu8/2xiu7Jclyz505Q88880z48Pc/UnOKeZ/03f05+1W69WGiS9/xOqer5KVHxP9O/086TQOrZeojbqvY1w99m/g+k97CuPqOn3JaFKWniX7z3W+mI5Sha39RTKMf0RNOq9QP6Pr/+D16gp8F/SNf98ynv0c3PqL+9rvycvrUFdafMn9qfW/5HS2NS95MP8v/iryzlbtfIDr0amc5hyjzJ0Qe9TK/i1tFH37abX0y5SVgmw1R89CVh8Ln0QWUL1Y+k9LWJ/E2i1jflx92u0MfOXSRGPMcfSZsG8UhnwkOPpYksa5rVdfrS3/xiDieXKb9noghL85xHbTNYnj8WaKfe6Xbyup47dvoZa+y/rzwbb9EL7X+lF61pnX7fdVr6Cf539NPyY+RfuWDlPsF9TcLWO4ycY35m2fidREuNfn5PaJOpyfv7AfdQQ63RXb34uYIDzkV6u4zUfliQay8Lf7qUrtToLrWN7m0VKBee0v+3VrvUK66OqNnqTgvIp92f7hMiYo5on6ft405n2PJVWlTpZtZKFKut8239anRK9CSVvDSapVyYpuZ78NH5zNoP8S5t68vtyA2TG/7DDcv0LpvfaMITNO4H2KY8fY0CkzfnGbkMR9UvnHzaZKgDFJAPruUpxPVnEjSTXFLXAaqJ9x0woRvF3NeMqVlzzLucWbe1qHTEh9LluBjPrlx8hmUF/v5bvnoCIntyn/zoG3fYLwfDOetOB7sJHLVE+JIcJn2ERu6ZvXHeHdOwv2XybrRldvq2qXtXo6MnZWM18gpnrcJxApaMxe9iP7Zy2T1JRBP43mGHaOjF1vB2+o1Weo/c4qOZl6rplmOHnur+ku4uEIPvld7/jUJz5uKM3TFQ2GdiDXy+dh76QZtucw996qJlqB8GsVIMwwH5nf+jLus58VRSco3JfM3f049/B48vP9adQKJC8HnbvWeDKe/9gMRQL6cbr/OPSkvPcKV9R+LQPO0DGJk0CICmr8Vgebpp90AONxFdKkKNo5cdy09f9e17nOfT78g1idc+VrPs6A3v/vVdKn4t/WB6O6XMn82p5uxNQx13DjyMvWHhssm/nni7i1nueu1d9NE5SVomzkefsxahgNzfr71d0Z/sZVTvoh8TlzE+j7Df9vb84pfJn4So/Wwe0NjVPGOpRBR+31EY+XF6HF65Ifqz1H8td1dmIffo4jX7I3s0sxL6InBc+pTNK6cVHM5qtZF9Mpd0mJ2S+o1GiSqSU734kQOz4sUBNlV2XoRlNM9yuk7xRUCcc3OjrGekeRpXmTKqVCLykZbVEhkOY35HE+uuKD+EkRFr7mpuofn5j0Vu1hGzae9H1LFsB9i2NXtqeHzq15wl3VuDI15zAeWb0rHZ7IyWILyydtfBrB2gMD7lorDAdcQw3aJyotYh+yKqoZyw+70atrWEfshybE0FWnK5xjnbeg+CiFvgETwpenpVpxku/C1UgTLA5FKWwTzWSeozpLhdDWb0nmbVKyg9Sf/yQV00xteThf95PDsPI6n8Tx+j3KlSQZvlu8MnqRjr7SCV/538u6nmz6+QsStuqoF9pGrjqppUbRWW3sY+4VFydO85gZ7mTvp2ENXqMB1nPLN1plWhW65T+SZ72QGPPAtWyN9rYFWK5oIXkRwRu+4nG4/9Bx9psUBjTXe74nTIo24Dr2a7uEWLBHceZ51veTN9HX5cpwSneLp9ALd2goOiKz1XUQ301fpDR8QFW8ODtWyQyUMag079GIZlF76jgVnOWtQrXcReQnaZg4tL0kCVmaXLzKfk2Zan7xpIdhBuR0oTqLVVxPnWPrUoRj7fQJGOq5DXUZX6E2oMeSO3E3f/r2/kC2mx+TLlj5IP62mTcoTg+dF4Ppy9SkOrvCIL9x8iVb5rakx717nqhuylbZRHuPZIn5eSlQcLNrdfHuQ1zWrEjRL8mZ6p2ZVHsoNIk8LRlg+p8RfMQt5xmzYCPlU+yEdFXCXeT8kNIvt6ZNftpepU9bTo2Eax/x0js/RyxBBtsB1iGObATez6sFtqKjtEpaXLq3J42fDGe++IdqUZsT6Eh9Lk5aufCY5b0sZ0z4KEeeaJW+UaMeDumkiJdkuGfFdKZY7021Tf/4EFUXo2uWgc+zr53TO2yRidw++Ovti+pNrL6HL/6+fphddeIEc+G8ex9OCvNFTaeIWV/63T18UUSx3G54WJyB+tknv9LVEvjZz1Nvtl11coeMvvZduCHrhk8nFR+kY3Uuf1V4e5byIKWmaQ67xbUdz+dJicOY5uuh1wQErv7Qm8GduZPDyI/rEAy/Qzx66THbx/dvTP5LjueWUU2rd7b6gR7bA+VpOTS697k3yZ1q4RS+oC+6RN71CBk+BtG63tkuPWDvGKo9Ldm0N6uYrgtLflOv/dmTA5c9L6DabFL18I+RzIgzrs1qXuUu3G8xaAb3W9VvdIOCXKPlbPmWXZ083cbFtDcdSHGH7nQWtz2QSx3WYUbri6i48ZnWI/uHdjYm3tIZ2WQ6jvnAP04C22uIrW+v+FMVpgfG9wKJvdwXrrhnvlssubVxZVRXYWkgrL3cT69TCg+PDosY2sa5UA9WNS6s8ON2fI/LJJpqXfFFUZTq07gQIapv5utUNiZFPnbMfkuKKnMin27hSGXrJyMhM+8Fmt6LEeIGKNM3tGSsvWnAx5jEfaNzjc8JliMJl7Pe74rqT9XTTNAndLjHy4rREinKuaNcl07YOnRbjWIp7HfRLso/GyedEifxFnrcGYfvISwS44gIz1jVrzO3C93a59fjwfJ/aJ0WwG/W9abpGjnkeTdoF/GAr/3Hu3Dmam5uTIyeF30pL77yL6K4raOWHR2n1qmO08tC9RD9zp3w+lN/Ku5J5hB68ZniD8htyV/zd29RyEr+B9x6iO33diTlwdLvMXifWeYpWBu7zqMyTtpamf51Hr7LyZsqnlQ/V7Vek9Uhmhd5JdznzBqb5yt+nzP1vlK2ubtrfoZt+f4Xe+FsPiu3lXUbPo6l8vK5Hrxk4z8rKebVpYdvTtNw08POqt9Kr6fn3D78Bl9+S2qKX0z3cysZdMbll65CaVwRWb5DPpSpaN1iZ5tNqOTnGJdMMSKP0bhEufMAX6NjzCVZeNNr6OEByurCK8ffQY3T9aXdZz3SmLRuW7tB4LS+R20xLXzeUJlPpmsrHYudTsrb9Z6LW598OEdv79tOPDZdbHRfcMsvPOstjhIn5/fuBedK11x9yLMn9JpY/9f4jdN8tW/SJXxTreNNpOe/PiuPlXQ+b9zsLWt9Q2ZhddsNxLZfzf9a2mdFjX6KLPk/0Zyv/0jkn+O3Bz53+XXr1p3+J/ufxt9OP3/Z5et0v/SV9++0fpp/84MP04v8upv+FmvlXPij26u/J+Y99+jXUC+ou/FptGrfQrvFDrfw2YfFZTnuHNR/j34xt/JD+UMtPKFGRGuqCxD97E/nMkvhyryxSu+g+y8qfG70cVTeaVBJ7oVJuWHesc1WqF9tU216S6VrzyUUkbq3VKzSm6fwlr1f8jMuqcvjTk2KUkZ9V8m8afX0jlSPm+tbnvWm4+A2X/Du6ipZeVPnC8mnKvylNnra95P4sktwnat96jicx/8b8Oq3QauD6pBhpRu0HZqXNlWS3BWXW29MWlJehNLX0mCnNsGPeXL64+VQfAvMzmTJE5dPZFxHpSdo8pmtBWF68yxSoWu1Twz52BVOa4dPCjyWxkPE6GHoeKZ5yxNhHLEk+I/Miz2saWpd/O0sq3dDzNnuSFtfnZUOLe2ycEXlbp3nx3bGwpeffu4/869P3T3KG/Wcg80KqwUjtZ24h5vyYtou1LdXaxDj9GsmmU8bRTTVoNQZ7cDCpgIMDxqEXFaWMP2DYNVPaZqkpH0zNRz/8SfrE5f/K87M3u+XLG5+k/5QZMS/8RdouxvqyPhBkJWSblvRKmhzXpiIH5bOvQxxMMfeDrCD3g3sczVqa8pLUfijDfpfqfTSl6ycHdHpwDdMz1bcHX/Orq0QPvZOaz6oR/Ezm2N1lYU+74pdlF8+0B6ypgm0GCf12+TKirb+kjzrX4N1xevNz9GvPen8zNo5Bv0/Jf6N1Hwp4romfueuN86INGF3UfuCbLYspqbynKS9J7Ycy7Hd7YR/h+rnnTbWlVdK7zwrXXe92QwVIs/3eEomW1gOCuwlvvpR+9Lv8sPVueJxuXP07elecbsEQSbZkeLq3DXfFg+nDfgDYe6Zx3qKldXamH7QCAAAAAAAAJDTV7sEAAAAAAAAA40DQCgAAAAAAAKmFoBUAAAAAAABSC0ErAAAAAAAApNZ0X8Qkf/+oQT39R3H5tdjqB3wle56c9ppsNc7+QVxmvfHLessXDb39a/d+6BYAAA6uoR9s9/0IvGe6/j3n/y7UDL/hEt9xIATVl5RBq0Jl90AT1SfrdydTcyzx8V4j75taPeO6ompXIz2rhbr1RlZTGcznX3iauyFsHyW6hhi25+Zmcajcu7tdJrtveXy7OHwMc1rr8xtUbJe9ywmeY15uJ3ulI5wrhvMvLE3JMG3kfbsxHx5XLW1r69HZb0hO1/mQxAxaWnOU67fFpgrGv5FE1TpVqU2tgRrJv6WUyxFtn1EjutTui3TUJ8YH0ubmpjP4D14AAIBZ4C9+67uoToVOjSrqy8yuXNnfU1Vq0OJa2LehF77jwC+wviRwZbvcyIqKqX28NIlOttTUvXEstSo16vvyqVemTWUIP//Mac5S1D6axjXETVMs1685y816u0x63y4Uc9Rrb6k5bCJO6OSouJChUtNapiqCBjttO02+cbBY64vA0U43/rkSdv6Z0jRNS75vQ+Kq/LKbllb2TRX8pul8SGoGQWuWisU+ret7WLPV7lE2mxcHIVF7S5snW6SivVO64kBZWhIp9akfnAwAAMAuy9O8fXe1uyaqIFVPpae0WqVcJ/wmLoBJYH1p0KJ1UVmvbmitMkJpebgFP63yogztnhVwjEc7/yaW5gSMtI/iXUNGVVoqEPFys94uU9i3GXEC5HrewJHjhE6u6LZuBurSyUZPBMJaK6gQ91wJjldMaRqmjbVvzXFVoDSdD2OYyTOt2ZIIOIfuighyIxaoKM7iTDbru3OSFQdGn9ri251jVp4HAAAgteR3mvj2ymZo0O/zH2qCksmKb7aO/F4DGElIfYlbf3qRlfV062ZKVMz1qFGueAORUWnnH00qzQkYaR/FvIYkNbFtHdcU963e0NVtdyhXXFCfQnBgS9Y5NLKQ88+YpmHauPs2NK4Kk6LzYRwzehFTnorZBvlbveWJXChad57yRSqoOydyZwp8N6XfXqM2qXk0vUaZFhcXnSFmbwkAAICJ6tTUd1FZfFttWF2uzmz3KDd/WM1h01pRIuA7DnRh9SUPUbGu2MdMxe3yuBeOJe7SuVElUam28mh3j7WZyhB0/rGoNHdFyD6axjXE1aW1mgjqqifk8TPr7TKNfevtIux2DR5XWF5inX8jGH/fBsdVJqk8H0Y0s7cH509URQDq3brc1F5wbkGIHVDw3jmRdwb6HdXM6t2Z/n7ne61fNgAA7A/2c1dV7e7/YfGF1XPey2Dr0nYvR0N1lQD4jgNdZH2JiTpTk4+XekGNsOyVYylTalp5tGrWnuf7TGUIOv9spjR3Rcg+GvUaEocT8C1azzLqXVFnvV0mvW89XYRjdQ2OJywvsc6/EYy7b1lQXBUldefDiGYWtPKJWuyvU8tqRJV3m7ip3z2prLd22XdO7DsQfGfAPYB77ruZAAAAUoSfG+s1Toqqh/jK465fqteQY9CnPmWJe7gBxGaoL8njbMxWn5k4PO95maYjNy9CAB9RX1zlN8n4z58I+vk3JGGakzDKPop7DTFtT5v7EiPDy7dmvV0mtW85plCBbKyuwUxuswSPZ5jiFVOahmnj7luJt4EeV41iF8+HccwuaBVKS1lqt9UGkm8IrjonlB35850TAACAPSe/TNVcx3pBhuxC1vB0wWqt8E+5WV30AGIz1Jdah/mY61Fjxe1qmkoBz3O31sODDW7ZGnrmL4p+/gVIlOYkyHzF3EcxryGjbk+TWW+XSe1bq4vwinzJVayuwSJQk++jqq15bmy01iL2i+n8I0OapvVNaN964qoR7dr5MIYZ/E7rNi05vzWkfiNI7Px6tiF/T8l/94dfAc3bMGza9tImFdsRv6UEAAAwA/b3ktMjSP6eHv/EAb8x0vu7eJ7vKTnf0BeZ/J2+yN8LhAPF/v3JoDqR/XuVQ8dMGo8lWSdskKgqW+zfmgw6F7TfoTSVIez826xnjWnuhrB9lPgaErY9VV2b6npPRSViW0/cFPat8zundvnVdrTxcqbfafWuM/p3Wpe2yyOef97fYg2flmDfGuIq/zaw8ybNer9PyXSDVgAAAAAAAIAxzLR7MAAAAAAAAMAoELQCAAAAAABAaiFoBQAAAAAAgNRC0AoAAAAAAACphaAVAAAAAAAAUgtBKwAAAAAAAKRWaoPWQatCi4uL1rCm/yyvGf82kXl2/k0jkWYl+Q9x828u6T8IPIk0JyG67Ok3vTLMeh/Nbn28zbzH4yxM4zxymaZNQtLry14xjfId5GvrNExqH+E8mp79Xr6DbD/UlwAOmtQGrZlSkzY3N2mjmlNjYD+ZdmVqFvZGGVSl3xnWxJgUGLRovVOgJfuHr2dsv19fcP2cHa78uueXGGLWhCeyj3AeTVX6yhdyE0ccBxXtGPQegun5DuDvTDcfu5sXANh7DmD34Dwtiy+hzWZJfZ6EaaQJkzXrfZSOY6JVqRHVRT44L2KoFzpUm8jt5fHKN9hqE1VPiFRg/zi419aCc47VqdCpzexmFs6jA6S7JoK8Ns0HBNCtlTYVN9QxWC9Qp1Yh+xCc3nfA6PLLbj44nwAAo5h60Gq3RundbNzrpe8O4AhdwDx3t4cuwHq67p08U1efVoUv8sHLMX19tY4aKSRP03/3kwf3iyaMeXuyeGUY2tbyC9GdHrfSFZYmj9fzJfMrRtj55m3Ya5TdZT2FiLnNtPWZtot5H6nx2qDPElS+qDKY1mcqQ9QxGI+9/Jr8e7uXo/nD1hR2eN5b4fGWP976kpbP1aWTDaLigrd1SM+Lfo4xTz7tdcpj1pdn37jA5SIl30dh64s+b4PtzvXTJLjspmNir1xbJyNP3lNsmvsI5xEPcbKTvvNoVCKP6/Mi2FumBTVGV2o2yWlszxepQD3aPsMfDN8BvI/XWqoMYn90VWvtCOWfLPN+8GzrmMdL9HeqaRoApM1MWlq5Yl/eXpJ317ibTWfduhjxHcB+dcO581alRqwLP38BNbJ1d7m+9852p7ZO8+quo35X0dzVp0eNsrtcNdehdZWmf336DcLkadaoU1BpblSJly7UtS8eg7DtycLKPmiJIGbVGi/zIra1s834y6vWp6p9p1YMzRgZMaYZwt5evA1z2r7fXHbbCvQy6Nss6ngJ2y6mfVRqqvXzwJkS+8TOSlj5ospgWp+5DOHHSzz8BWynvyw+56lY4DTVl/GgRSuNHhWKVj65Aqcf17xMnBab5OWzDFrr4thf8hzrpnMs9HyXlbMOtbXkB/2+2IdFWY6o60SYUfaRfo5Frc903prM+vppst+vrWMT51i7R5TNWiub5j7CebR3z6PR5Wk5UW8D83cAdRq0vcTbX8xT26Yl7inQa8/oBo+XaT+YvqvM+yH8OGNhdQ0ASKfZdA/OVd0K/UKRcr1tvtJQo+d9Fqe0KioYnXbE3a4utTsFqmtBTmmpQL32lvrkraDki+JbOzJNi77cQjFHPb5VqZ4Z0tc3isA0ZRm4TqDSzJRITKJ+P+YFM2B72uULK3umtOyp3Lh5EV8W6x2R5KpnehymNMcRuM3iHC+G7RJNBHzci0rbzxMvX4wyBB8vcWw5Aat+w0F2x6oT1fhOctnqQuY5lGOeG7HEPKe3RK3eOfaZ8Rwzne95OsGVT622bfWW5HmjrxOBRtxH8hzjCn6c9SU9Pmd8/TQJu75ECTyu03htTahTU601+jk25X2E82jvnkfTJG/aiLLaWTN+B2jz5Xazm3mc/RC4T6L3Q/BxZgm+hgBAWs0kaM0VtQ4tohLRlK1AQm5+9IvkoE996lgXYHvw94HSHZ6Xd9rTxepC5lQSRGWj3csNdfMKE7Q9A7ejXnaxDv1FDeVGT03g7kNuy8BIQtOckojjJfZ2CcBf9OKbzzv/NMqX5JiPoddoiLNi+Bjiu9CLslsZV1yy1Chb3eQYt2TJO8+qfBNpJYgqH1dOyK0oRYo432Xl067M8HlERasSMup1QjfqPuLKb4z1hR6fvuPM301tptfPiLx47MNra1L2M63VXI/aW9p5NI19xHAeWdJ6Hu0SbpGscRCntcqavgNSxbAfQr+rkuyHuDc5ACB1dvdFTP6Lx5ltihcWiIsyX4D1IazrDKeZ5EtpyrJZ8b9OzbrIlhtECVo6Izll79KaXIfb9cbtcud/BisuU5pTkvh4iSAqgDVyuwVbplS+KZWBuylvVMntBsZEJW69kxOHljo38suyC3SvcdKZx30xRp2yjfL4lZmI8nXbIrTWK4+xGM53Ufks5qyujfKlNJ60R7hO6EbdR+IcsyRcn6xA68vFvNkyjevnKHnh9R3Ua2sI2cqjnV9T2UcCzqMAaTqPdgEHrNZXllZuw3dA6kTsh/DvqhH3QwqvWQAQz+4Freo5Gv0ZAqubakQXFfXlqj+XYCLTHPnLXZPJUlbk071xz3cyrb8Tk18k3gvt0DOk9l3jMV6K4C+705oq0ubnWmzcLaZTM7SoGPISliZzuuSJoNDfSskvgxipK1XS4yUKl83XLVhnKt/My2DYD8y5G+2Zbr+Qw8KV3eAv7YCbFxHrGxJVPpEeH/d6FzDJdI7FON/5+O33u7TVzrppj3idcIy0j7hLuTrHkq4vqRldP03k+vbitXWaRFDgPBs3rX2E82hyUnAeTYIbsLrdXV3B3wG7obXmfpfIfKjnpkfbD9p31Uj7QTvOAGBPuuD8+fM7/Me5c+dobm5Ojpwk7pqyPu99zs4lLiKLNXGpUvjlGSp44LfBDfXGNEznliZeR9h4ZkqTp/ELCezYRX4J8EsbeIQIupwuJ2L+jfl1WqHVwPVJMdLk7eKvoOl55YpJRXwL9fg5HO2uoWl7mspufanZEwtUrfapYZdP8E6PlxdjmvYyPEksVy+2qaatj3nyG2c/GI6XUbaLpK0vbFrUNmNhZQhLM+qYDy+7HBG4H3i5dtEtu7X+nFWBOaMdu0xbdiifWl4kw/qSlG+oPDrDOcb86/Qcn/Y6/fkXwpZLWgZzPsKnm6+D4WZ9/TQxLWNaH09L1bV1wvx5scrEL7bjAGLy+wjnkXfeONJ0HiUVmBd5bc5682+zr9v6McH08dxtWPztbp8zIi1+OVFQ8DsBvnqB/r0y0n7QprGw/WDaPzzN+H0LAKkz9aAVAsgLN7+pz9uNpyJfkjClLwuAXcUVkilWhmbEX9GBlNn311acRwBx4TgD2F9295nWgyrgmRl+jqhHWUryPiSA9MvT8iZuyMCU7ftrK84jAAA4mBC07ob8sudNeDyUG1mqx31xBAAADMO1FQAAYF9C92AAAAAAAABILbS0AgAAAAAAQGohaAUAAAAAAIDUQtAKAAAAAAAAqZXaoJV/M8t+kcbiCD/gza84N8/OPxkg0qy4P3I9Kv5Ns4r2I9iTSHMSosueftMrw6z30ezWx9vMezzOwjTOo4Mp6bXO5CBfB/eKSe13nEeWaZxHMGsR1xD+bVl7Hy9WCIf93jTyNWuC+30W1939UL60Sm3Qmik1aXNzkzaqOTUG9pP9UNHaG2VQlQBnWBNjUmDQovVOgZa03+6YxvbcC/sI17q9jW8QuOeXGGJWFCay33EeOQ7GeRQS1PFvEWvHoPcQTM93QNJzxSLKUetQob4p9/NmzJ9+2hvf0xAu2X4PE3WdiHW8BFx3k0th+VLsAHYP5t+5EwdGs6Q+T8I00oTJmvU+Sscx0arUiJyL4ab1cyATufs2Xvn4tzOpekKkArsD18FJciscdSp0ajOrFOA8OkBka0yb5gMqo62VNhU31DFYL1Cn5rbWTO87IBnzuWK4hgz61KcCFXGwHywp3O8Tve7iuB7J1INWO6rXm6zd66XvDuAI3co8d+yGLsB6uu5dRVOzeavCF/ng5Zi+vlpHjRSSp+kruxyiuwWYtyeLV4ahbe3pnhD/TkxYmjxez5fMrxhh55u3Ya9Rdpf1FCLmNtPWZ9ou5n2kxmuDPktQ+aLKYFqfqQxRx2A89vJr8u/tXo7mD1tT2OF5b4XHW/5460taPleXTjaIigvW7cSo7ck8+fStM6gM46QZfY4F251rnUnwsWTaf3vlOpheefKeYtPc7ziPZnMepYEo9/q8CPSWaUGN0ZWaWutMviiqwD3aPsMfDN8B/J2/1lLbRZxzXdVaO8I2HY/3XDFdQ6Qz26JUwTz7VuU/zrELs6PvI/27gxnPzRH3O+PxejLyWIjY7/GPF+9117Z/ypdy/DutPJw9e1b+O+nhgdsWdhYWxHDbA/LzUxvHdxaOb8i/N44v7BzfeMqZlz/b89mDnN83TqapjdPTkWksHN/ZeCp4Xh6C0vQvp6fpT4M/6/nmYaw0n9rYOS620W0PuMuGDXI5w/YMK/tTG7c54+15nTI8cJtnubiDKU3+Wy+Pf/sEbUMe/GXwp6kvI+dVaZq2iz0E7SPPwNtBm27cZmIIK4M9hB0TYWWQf4eU3TS48z2wc5vYBv48LizctvMAf/YdZ5HbI2IYtXz2ELbesO0py6DNr68jqgxJ0rS2mTtdrsN3LAUNpuWSbhdTPk2DTD/kWmAPQevzL6evz58Gf/bnZaw0R7gOpmng8jh59pVBL6v9Oc5+iLPfg5bjIWi/2OPD0gxLyx6SpCmn7fHzKI1D9Ha0vgfsY9DangHfAfJ73/rbnYeXdc/VSQ+83cPOFXvw7z/5mY8H/+AcH+N9T2OY/uA///R94p9m779x9rvnOJPzDl8TgsbxEHW8BC23n8qX9mE23YNzVdpcttq+MwtFyvW25V2+Rs/bJ7y0WqVcpy3v8IbrUrtToLpKj5WWCtRrb6lP3P3EveuYLxaIItO06MstFHPU41uVqu+6vr5RBKYpyyCm2f0BMiUSk6jfj9m8ELA97fKFlT1TWnbvxApuXoha6x2R5KpnehymNMcRuM3iHC+G7RKtS2vci0rbzxMvX4wyBB8vcWzR2mKN+tUNamrp55c3abNOVOM7amWrC5nnUI55bsQS85zeavfcYz9S9Pk+ehlipJn0WJrxtc4k7FoQJfAYTON1MEU6NXXXWj/HprzfcR5NdnvuF13xRdYR288urvE7QJsvN6Nu5oHnioH9jB53exZXC6qrbs7O8TGleghMiPG7I/zcTOt+H7ru7rPypd1MgtZcUevQIiomzc1l6+/c/OgXSdn/u2NdgO3B3xavOzxPnt5aqWB1i+m01VetOOjbvdxQd4MwQdszcDvqZRfr0F/UUG7YHRK4+xBRNhtv3R6haU5JxPESe7sE4C96cWXxzj+N8iU55mPoNRrirBg+hrir3aLsVsYXxyw1ylbXO8YXTfl8kyqfPX4sUeXjiie5FaVIEed7ojLEuIaEHku+Y8LffXam17qIvHjsw+tgmtjP6VVzPWpvacfgtL7jcB7FF2d77hPcBbDGlWTtmVDTd8BuCD1XkprG9zTMxjjn5m7s9wlfd41wXAfa3Rcx+e+6Gvp2e2l3Jewh7OUfnOaUAoVxZLPif52adUCWG0QJWjojOWXv0ppcx4azvdw3i/mfwYrLlOaUJD5eIogLUY3qvgvRlMo3pTLkRD43qiQqJFrlT1z01js5cWipcyO/LO/q9RonnXnkXXhZvjplG+XxKzMR5eu2RWitV0hjMZ/vycowwjVEJyvQ+nIxb4xM41o3Sl6ca0G6zOQ6OEPyLrp2fk3rOw7nkTKh7bkfcMBqfWVp29LwHbDbhs6VRHahHgITluTc3J39Po3rbjAc12F2L2iVLwvo0Lr2xWh1U43ooiK+7Iq5Tuy338k0Rz7INJksZUU+3cYAvpNp/Z2Y/CLxHsh6l07JvssyxksR/GV3WlNF2ivaXRvudtCpGVppDHkJS5M53fxEUOi/S8Qvgxipe1bS4yUKl83XLVhnKt/My2DYD8xpLfFMt1/IYeGLbnBrRcDNi4j1DYkqn0iPj3u9e58ucHuOdL4Pl2H8NCdgRtc6E/+1YGS7dR3ca0RQUBX7TO7rae13nEdqxOzPo7RyA1a3G74r+Dtg1+nnypgm+j0Nk2X67hjz3Exa/zQJPV7Crrv7pXx7xAX8YCv/ce7cOZqbm5MjJ4m7pqzPe5+zc3Xlc3hO3adQd/pz89uxhvaDYTq3NPE6wsYzU5o8bXvJfb5CfglsL1nrEweF06Qv5t+YX6cVWg1cnxQjTd4u/kqfnlc+SCviW6jHz/Zod2VM29NUdutLzZ5YoGq1Tw27fIJ3ery8GNO0l+FJYrl6sU01bX3Mk984+8FwvIyyXSRtfWHTorYZCytDWJpRx3x42eWIwP3Ay7WLbtmt9eesCswZ7dhl2rJD+dTyIhnWl6R8Q+UJ4Enbt230dYad70NlEEZN03zNCjfra52JaRnT+nhaqq6De4C/fNZ26qsAYvL7HefR7M6jNAksn7w2Z73bxGZft/Xzlunjuduw+Nvd5mdEWus0Hxj8jo/LEHau0Ip5/1nz8q/3eFvl5fngLBj/expmSD8GxfbXvzuY8dxMst8N9c/A88h3TAQdL8br7j4o314x9aAVAsgDbpuW9INUjuMXE0znywJgd3Flc3qVIdiDcB1MAOcRAMBs4bqbFrv7TOtBFfAcDv9YcY+yZPcGANhf+EfjccEHDa6DCeA8AgCYLVx30wItrbtkuFscP9vl7R4AALCf4ToIAAAAcSBoBQAAAAAAgNRC92AAAAAAAABILQStAAAAAAAAkFoIWgEAAAAAACC1ELQCAAAAAABAaiFoBQAAAAAAgNRC0AoAAAAAAACphaAVAAAAAAAAUgtBKwAAAAAAAKQWglYAAAAAAABILQStAAAAAAAAkFoIWgEAAAAAACC1ELQCAAAAAABAaiFoBQAAAAAAgNRC0AoAAAAAAACphaAVAAAAAAAAUgtBKwAAAAAAAKQWglYAAAAAAABILQStAAAAAAAAkFoIWgEAAAAAACC1ELQCAAAAAABAaiFoBQAAAAAAgNS64Pz58zv8x7lz52hubk6OnJhBiyrlBvUKddpczlvjumu0uD5Pm82S9dmeJ1cdGkfVDWqWMnJUd22Rap0C1TeXieTfcrQjp80LALBv8DXTueDlxGWxSXypa1UWqdFTo5l2nbWul/JPh+caGXTd9axHF3HdzZ4cWm6k63GCvKhvEwAAADggZtDSmqNcv01d9clvsNUWwWmdqtSm1kCNPLMtKjA5ou0zakSX2n2RjvrEuFK0ubnpDAhYAWC/GbQqInjri0DVvtY1iU621FSOU+3xdSp0alRxLqLma2TgdTe/7MxbFRdbd3k3SAxPk4NJNX6jStQoe/JikjQvAAAAcHDMIGjNUrHYp/WQCsxWu0fZbJ4WikTtLW2ebJGKdrDbFZWapSWRUp/68epBAAB7XJdONnoiMLVaVm2lZdUa6ZGnef2uXoTQ6+4kZErUrBeo1zgZerNSN9W8AAAAwL4wk2dasyURcLa31CfNoEXtXoGKeVHPyWap55knKyoxfWqLWg/HrDwPAMCBIS58HbKuj5HktVRcNbMxepwYr7sTcniecnFuMs4iLwAAALDnzehFTHkqZhu05rvtzt3CeoWi1d0rX6RCz+oeNuj35fTMQpH67TVqk5pH02uUaXFx0Rn8aQMA7HedmroGlsVVcmOT7FcHsLBrZNh1N47Y191MlrLqT5Nx8gIAAAAHx8zeHpw/URUBqLeGw93CCk4zgghsCz1v97BMiYr9jmpm9XZ/8z9bpVfWAAAOAvuZ1mrOd+0Uwq6Rkdddg9jX3UGfrFuPZuPkBQAAAA6OmQWtVgC6Ti27JqO6szktBWLgl0Xa3cNy84flv6WmXjHque9mAgDYz2QX2458RCJKaSnmM6QR191JkS2olCVjb+UZ5QUAAAD2vtkFrUJpKUvttopa5RuCq5679vzWyVyvbU0HADjIMiUSsagI6tY8wWhrzX17sCO/TNVcJ/SFdw7DdXdi3XK7a1SWL5CKeNPvLPICAAAA+8JMg1Z+Zinbs35YsNvuUK64IP92cGtsrifqMtY8Jv5nq+L+vAIAwF6RX96keqFDNedaVyE6EfT2YLu1dcUJ+IKukabrbpxuueHXXS2P6id6oh7ZGDcvAAAAcHBccP78+R3+49y5czQ3NydHAgAAAAAAAKTBbFtaAQAAAAAAAEaAoBUAAAAAAABSC0ErAAAAAAAApBaCVgAAAAAAAEgtBK0AAAAAAACQWghaAQAAAAAAILVSG7QOWhX39wDX9J/Wn45WZZFmsJqpml4ZurTG+6HSUp+nbXbr4202+9/4Hb983bXwfJumTcKsz81Z2+/lAwAAANhrUhu0ZkpN2tzcpI1qTo0B27SDklnYG2VQwaUzrIkxKTBo0XqnQEuljBoxW/v93ExV+cS+rmjHoD+G5psuzvGpTzQs5wnKA6abhK2Pz+ck6YXm0zfeGfhGT3dteLwc9PPTdGMowU2jiP0g2fOMdDMqOC+h+yhsu8Te4AAAAHsTugdDDHlaFpX4zWZJfZ62Wa8vWKtSI6qLfHBexFAvdKg2kcrheOUbbLWJqidEKrDftVbaVNxQx2C9QJ1ahex7PRwoNrJ1dXzWqdCpOTeCTMuxXHVDLWcNyzEOJtP68stuWpsbVer71hcmNJ+ZEjXt9NQgJhNls7wyZxzfV3DLsmydEzKobdN80E0H0zSDqO3JWisNyhY4kzFF5CVwHw1tF7EfKCcuB7gaAADA/jb1oNVuUdPvHLv1fl9L1gh3qENbGAzMeWF6frytap71+fPpu/MftwUxLE0er+dL5leMsPNd6xD1GmV3WU8hwsoQvq1N20Uf59/OnvyrQZ8lqHxRZTCtz1SGVoUrkeH7Lx57+TX593YvR/OHrSns8Ly3cuktf7z1JS2fq0snG0TFBW8rq54X3rY6Tz7tdcpj1pdn37jA5SIl30dh64s+b4Ol6dqTVKnZJKdBPV8UAUqPts+Ivwfc2q4HK3k6IYKfXntLfgpdLqmI9XlksiRCy1ji57NLbc/6w4j9uj4vgrllWlBjXKZpNnVc+PZrVD75GGtQlU4U1QiPoDTj5CXaoLVO/eqqmzcAAIB9aiYtrRyclLeX5J1h7nLXWbcqiNyS1dfuJlfF136cSiBXRt07/mK5vnvHP0pYXlintk7z6m663qo2aIkgZtW+s23l01kfV/Rrfarad+HF0IxRgzCmGcLutsgtDp678FoziV6Gaq5D6yrNqG0dtl1MXSVLTbV+HjhThbrTYhNWvqgymNZnLkOPGuXgssfDFUs7/WXxOU/FAqepAitRaV9p9KhQtPIpK6naMei08kRIXj4LV1I7hSVPJdV/PsgWKSX0XJEV7w61teQH/b7Yh0VZjqTn2Cj7SD/HotZnOm9N0nTtmagz29TLFd3jQFyHyuL4pN62dbxO2ijr67apo887AUHHfbA8LYf2YDBNG4O8NhBVV0sUv8gTyItcb3bXHhMAAACYpdl0D85V3aBkoUg5UdHhSk+j530ur7RapVynHVHp4jvuBaprgVppqRB8xz9IQF7s9RXq7t30fFHU/FVeMqVlT2VpoZgTdTXrNntrvSOSHP1OtynNcehlcNKMs60N2yWaCPi4J622TyZevhhlCCx7LFtOwKrfcJBdHutENW4lKVvdA7UiOsfHRMQ8H7babuAsyRYw7/ngMp0rVktZR4tarV7HPG/Cc2zEfSTPMQ6U46wv6fGZpmvPmLriJOuI8mirp4HY//IZR9mTnbuK9qnvi6GDluNgPklrsWl9Tgt0rUOFpdEDsqB8WqzeBbPpAqu67g9nwuHPZ1dmzvQdEJ1mkKh9JLsj1+PdLAMAANjrZhK05opaByj5TA63ZAm5+dG/cAeikkQdK5CwB39/SIOgvATm4fA8OW1hdkVNDbKFQeIupPyYVWhtJVxomlMSsa1jb5cAXIkTNXnv/NMoX5LjJYZeoyGOqNxQl1tuVVuUXfg4eM1So+x2/eYWU9lSqMo3kda2qPJxsEVBlfoQEeeKDOLsQE3sLxGWWxXvcc6xUfcRB5Ex1hd6fPqOM3+X4zRde8bBLfs1Dpj11rleg8rlbVqSrb5ie8j8ZUm/HAUtZ7f2663FTlBk2p4R69N7Xsyva+dExD5igeVTZCvrhFtukxrKpzgna/1qrN41ozDuIzbqtQAAAGCP290XMflbS7gLmvrTTFQatC90OYzb1cpPdofjim2X1sp8J93tSuh27cyT7zHHmExpTknibR2BK23kdgu2TKl8UyoDd1PeqJLbFZiJirZ8hm9VHVf88pd6QdTbTzrzuC+fqVO2UR4/cI0oX7ctQms9CIvFcK6IIK6Ys7oIy5c7edJOeI6Nuo/EOWZJuD4ZiOrLxbzZkuZrjw8HStbppJVN3lQTx6c+jsugBeOBywXgXgmOsO0ZY306T0+HiH1kzie3svYStdxOWlA++ZzkYN4JyPkmhvo8QgN2JM8+EttkjR9Jsa9NAAAAB8DuBa3qmTr9uUOrq23EW1FVRdv4Flf7zv4IL1fxk3nRKvFOa6pIm59ttHFlolMbbjlwGPISlibr233uRFDob6XkFwKN1CUx6baOwmXzdQvWmco38zIY9gNzWk49070vW5EV1MBKesDNi4j1DYkqn0gv8Gdu5Etv3GdTrZYg6+845wofv/1+l7ba2rNxcc6xICPtI654q3Ms6fqSmua1Z8LcQEl7ERCTeelRY8U9vmQZ1DUrdDk/dW56upwHiViflwo0o9IUovJptbLOskVRHJd83vr2cVg+PW9N5sF6WF/+7eY5OM3YfPsIL18CAICD6ILz58/v8B/nzp2jubk5OXKSuIvl+rz3WUEXf5nXRPVRKdSd5374+ShfnGOczq1lzjo4YBA1jB5XHrRWEFNeTOlZFRZ7YoGq1T41+OUuKi/e6fHyYkzTXoYnieXqxTbVtPUxT37VduFx20tuZUmuw1kufFuPsl0kbX1h06K2GQsrQ1iaUcdLeNnliMD9wMu1i27ZrfVzi5KonJ7hl2w5a7Mqo2rZoXxqeZEM60tSvqHy6LpaPsUyG/PrtEKrvjLJPyXP8Wmv059/IWy5pGUw5yN8uvkaEm5Xrj0T5cujLeQ4dPNhXs6bf3Wsx8x+8PqGt0mh7nv+O1BE+dQ5lDWkxevVz1/mz4sUWHbFc46qPHnOh+j94OBzkR8p8IwPSnOUfGr7SP9u8OAeAEEt1QAAAPvD1INWABgXV3r5rbvxg4s04oq4fmMBAAAAACCO3X2mFQBi4LeP7u2AFQAAAAAgKQStAAAAAAAAkFroHgwAAAAAAACphZZWAAAAAAAASC0ErQAAAAAAAJBaCFoBAAAAAAAgtVIbtPLvUi7yD7KP86PsI+Cf45jBaqZqemXgn1wR+6HSUp+nbXbr421WaQ3Up1kZv3z8G6Szz3f6zPo6AQAAAACzl9qgNVNq0ubmJm1Uc2oM2PZDwLI3yqCCS2dYE2NSYNCi9U6BlrTfwJnG9twL+2jfXyfEvq5ox6A/LuebLs7xqU80LOcJ9AOmm4Stj4+VJOmF5tM33hn4Rk93bXi8HPTz03RjKMFNo4j9INnzjHQzKjgvofsobLvE3uAAAAB7E7oHQwz8O6GbtNksqc/TNuv1BWtVakR1kQ/OixjqhQ7VJlI5HK98g602UfWESAX2u9ZKm4ob6hisF6hTq5B9H4EDxUa2ro7POhU6Necmg2k5lqtuqOWsYTnGwWRaX37ZTWtzo0p93/rChOYzU6KmnZ4axGSibJZX5ozjexVuWZatc0IGtW2aD7qRYZpmELU9WWulQdkCZzKmiLwE7qOh7SL2A+XE5QBXAwAA2N+mHrTarTX6nWO33u9ryRrhDnVoC4OBOS9Mz4+3Vc2zPn8+fXf+47ZOhaXJ4/V8yfyKEXa+ax2iXqPsLuspRFgZwre1abvo4/zb2ZN/NeizBJUvqgym9ZnK0KpwJTJ8/8VjL78m/97u5Wj+sDWFHZ73Vi695Y+3vqTlc3XpZIOouGC1skZtT+bJp2+dQWUYJ83ocyxYmq4TaVJqNslpUM8XRYDSo+0z4u8Bt7brwUqeTojgp9fekp9Cl0sqYn0emSyJ0DKW+PnsUtuz/jDiWFmfF8HcMi2oMS7TNJs61nzHSlQ++bhtUJVOFNUIj6A04+Ql2qC1Tv3qqps3AACAfWomLa1c8S1vL8k7w9yNr7NuVTq5Jauv3U2uiq/9OBVLruC6d/zFcn33jn+UsLywTm2d5tXddL1VbdASQcyqfWfbyqezPg5Ya32q2nfhxdCMUYMwphnC7grJLQ6eu/BaM4lehmquQ+sqzahtHbZdTN0vS021fh44U4W602ITVr6oMpjWZy5Djxrl4LLHwxVLO/1l8TlPxQKnqYJRUWlfafSoULTyKSup2jHotPJESF4+C1dSO4Ulp5IatT1N50pYGcZJk5nOMZM0XSdS78w29XJFN1gR16GyOD6pt20dr5M2yvq6bero806A/7gPl6fl0B4MpmljkNcGoupqieIXeQJ5kevNeh4TAAAA2K9m0z04V3WDkoUi5URFhys9jZ73ubzSapVynXZEpYvvuBeobkdHQmmpEHzHP0hAXuz1Feru3fR8UdTYVV4ypWVPZWmhmBN1Nes2e2u9I5Ic/U63Kc1x6GVw0oyzrQ3bJZoI+LgnrbZPJl6+GGUILHssW07Aqt9wkF0e60Q1biUpW90DtSI6x8dExDwfttpu4BwtxrkychlipJn0WErTdSKFuuIk64htpBWJBiJwkc84yp7s3FW0T31fXB60HN8gSNICbVqf06pd61BhafSALCifFqt3wWy6wKqu+8OZcPjz2ZWZM30HRKcZJGofye7I9Xg3ywAAAPa6mQStuaLWAUo+k8MtWUJufvQv3IGoJFHHCiTsgfsxxhSUl8A8HJ4npy3MrqipQbYwSNyFlB+zCq2thAtNc0oitnXs7RKAK3EiOvDOP43yJTleYug1GuKIyjldbm3cUrcou/Bx8JqlRtnt+s2tkbI1XpVvIi14UeXjAI6CKvUhIs6VRGWIcf6FHku+Y8LfpTpN14m04VbxGgfheutcr0Hl8jYtyZZksY1lmbOkX46ClrNb0vUWaCcoMu2jiPXpPS/m17XjKWK/s8DyKbKVdcItt0kN5VOck7V+NVbvmlEY9xEb9VoAAACwx+3ui5j8LTDcBU39aSYqDdoXuhzG7WrlJ7vDcWW5S2tlvpPudk90u3bmyfeYY0ymNKck8baOwJU2crsFW6ZUvimVgbvAblTJ7QrMREVbPsO3qo4rfvlLvSDq7SededyXz9Qp2yiPH7hGlK/bFqG1HtjFYj5XkpUh4fknA1F9uZg3RtJ8nZgBDpSs00nbXvKmmjg+9XHONcsSuFwA7pXgCNtHMdan8/R0iNjv5nxyK2svUcvtpAXlk89JDuadgJxvjKjPIzRgR/LsI7FN1viRFPvaBAAAcADsXtAqX2bhfe7Q6mob8VZUUQEq5jrmt7jad/ZHeGGLn8yLFiA4rakibX620caViU5tuOXAYchLWJqsb/e5E0Ghv5WSXwg0UjfHpNs6CpfN1y1YZyrfzMtg2A/MaXX0TPe+bEVWUAMr6QE3LyLWNySqfCI9/8/c6AK3Z5xzxTFchvHTnIBpXif2ADdQ0l4ExGT5etRYcY8v/ZoVupyfOjcju5xHrM9LBZoxurFH5dNqZZ1li6IICPm89R03Yfn0vDWZB+tBcPm3m+fgNGPz7SO8fAkAAA6iC86fP7/Df5w7d47m5ubkyEniLpbr895nBV38ZV4TVVKlUHee++Hno3xxjnE6t5Y56+CAQdQwelx50FpWTHkxpWdVWOyJBapW+9TgF8aovHinx8uLMU17GZ4klqsX21TT1sc8+VXbhcdtL7mVJbkOZ7nwbT3KdpG09YVNi9pmLKwMYWlGHS/hZZcjAvcDL9cuumW31s8tSqJyeoZfsuWszaqMqmWH8qnlRTKsL0n5hsoTwJO2b9vo67SPz8gyCKOmaT7fw+3KdSL1fOW2hRyHbtnMy3m3iTrWY26S4PUNb+dC3ff8d6CI8qlzKGtIi9ern7/MnxcpsOyK5xxVefKcC9H7wdEV1wx+pMAzPijNUfKp7SP9u8GDexUEtVQDAADsD1MPWgFgXFzp5Tcjxw8uAAAAAAD2CwStAAAAAAAAkFq7+yImAAAAAAAAAIMLuYWVBwAAAAAAAIC0uZC7BKNbMAAAAAAAAKQRugcDAAAAAABAaiFoBQAAAAAAgNRC0AoAAAAAAACphaAVAAAAAAAAUgtBKwAAAAAAAKQWglYAAAAAAABILQStAAAAAAAAkFoIWgEAAAAAACC1ELQCAAAAAABAaiFoBQAAAAAAgNRC0AoAAAAAAACphaAVAAAAAAAAUgtBKwAAAAAAAKQWglYAAAAAAABILQStAAAAAAAAkFoIWgEAAAAAACC1ELQCAAAAAABAaiFoBQAAAAAAgNRC0AoAAAAAAACphaAVAAAAAAAAUuuCs2fP7qi/aW5uTv01IYMWVcoN6hXqtLmct8Z112hxfZ42myXrsz1Prjo0jqob1Cxl5Kju2iLVOgWqby4Tyb/laEdOmxfgYOmKU6JG+ilRqG8Sn3LWeaNGKp5zhc9HZ4acOOWaxJNalUVq9NRopp3DoWlmT2pp6azzNm/I59QEXV+UQatCZaeQbtkjtxkAAAAAzNSFHKhOPFj1yFGu3xbV1WCDrbYITutUpTa1BmrkmW1RycwRbZ9RI7rU7ot01CfGlcjNzU1nQIUSDqpWpUZ93/mgB4Jh5woHbYu1vgjW7GlNopMtOY1xQGmNr1OhU6OKc4KGpJlfdj5XxcnqzsMBa3Q+pyHw+iJwYFpuZEUwbefFW3ZcXwAAAADSYwbdg7NULPZpXa8xarbaPcpm87RQJGpvafNki1S0g92uqHguLYmU+tQPTgbgYBq0qN3LUXFh1KCqSycbPRGYWq2LttKytzXSkqd5/Y5REonzOZ7A64vIy3qHW1atYNoWXHYAAAAA2G0zeaY1WxIBZ3tLfdLIimyBiqLmmMlmqeeZJysqmn1qi6iVY1aeBwB8MiUq5nrUKFc8LYmRxEnVIevciyTPU3FGZscIOJPmcxwh1xdufe3lip5gHQAAAADSa0YvYspTMdugNV8fYVl5LBSt1o58kQo9qwvfoN+X0zMLReq316hNah5Nr1GmxcVFZ/CnDXBQlJqbtFElERBa54LejZclPVc6NbVMWZyBG96uvEnSjMrnpIVdXzxEYFuxy1Fxuwfj+gIAAACQHjN7e3D+RFUEoN6aH3fdKzhNPSKwLfS8XYS5dabfUc2s3i6K/mfOpv1sHECaZUpN61ywokJa1KKspOeK/UxrNec7L4WkaZryOWmR1xcmrjFNzk+9oEZYcH0BAAAASI/Z/eSNDEDXqWU1osoWDu5y6LTmiIHf2Gl34cvNH5b/cuuMW2Hsue9mAoBh4jxb5bcgqd4KoQ7PU446svt9lNJSgXqNk6EvU0skbj6TMlxfuKuw+GN23ZQBAAAAYCyzC1qF0lKW2m1VSZVvCK56WjO49SUnKpMAkBy3MBIHZiYiaBSxqAjq1jzBaGvN7SLryC9TNdcJfZlaUrHymZTh+tI6zOXpUWMloKwAAAAAkDozDVr5ubJsT1RUhW67Q7nigvzbwa2xojJ5Ztuax8T/zNm0n48DSCX+nVXtPOChkdV+F1kIO1fyy5tUL3So5kyrEJ0IfoOu1dq64rROjnz+xcjnJJmuL9xFmHtw1LMNNz++H2bF9QUAAAAgPS44f/78Dv9x7ty5Kf9eKwAAAAAAAMBoZtvSCgAAAAAAADACBK0AAAAAAACQWghaAQAAAAAAILUQtAIAAAAAAEBqIWgFAAAAAACA1ELQCgAAAAAAAKm1T4PWLq3x7ytWWuoz+HXX9uNvT2K/AwAAAADsN2hp3WdiBaODFq13CrRUyqgRyc06+N2fwfb4WhURrHPAzsNaV42F0BsZ4hyo2NtLDN5NppZxhjUxBgAAAAB2yz4NWvO0vLlJm82S+gy6wVabqHpCbKX95mDudw7kG9k6bXLZN+tU6NQQ2LPumgg42zRfzakRrtZKm4obvL3EUC9Qp1Yhe5O1KjWiupomhnqhQzXcCAAAAADYNTMJWj2tQL5Wi7AWIrtFbdCqONPlZFkR9bV8aOP0+QNbnOS8aroY9Mq9qbXKM83famNIM3yarzVHS5PXpa9elkmNaFW4cq0v6y13rUPUa5TddIe2QZdONoiKC95W1rDyheUlen0h5ePtsdZS6xNl6aoWL986/ctFrc+ero9zmbZ18PaMw5NP03GtrW/iZKt5jqon7FsQeTohgrRee0t9PqjEPl2fF0HnMi2oMbpSs0lOR4N8kQrUo+0z/KFL270czR+WU6TD8yrojXHsAgAAAMDkTT1o5WDCbQXiYdlp4fO2EG1Ste9tIeLgpLy9JKdtiIp4Z11UDmUFs0NtLUIY9PtEhaJMN1NqOvMP4UpnrU9Vu4VFDE1VczXlZdBaI1p1l6lSw82nIU3TNG7N6Vc3nPGc5nCwFaRHjfI6zas0q7kOrYu82OWuF4hyWrqby9721EFrnTqFJbfCLhjLFyJqfcbydRq0vcTLirLUtmmJWwd7bdnSFZaXqPWZ9rt5Wwdvzyim4zrJ9kzszDb1ckV3f4pjrtzoiWJtxw6+96c8LSdqcc9TkY/LsroJMWjRitiehaLau4ZjFwAAAACmYzbdgzvtgAp0l9qdAtW1oKq0VPC2EOWqblCyUKScrIhbLUkdLWq1eru66YRprXdEkquegM1izkumtOxZZqGYEzGBbJYxpGmYJgKLRs/7TGlptUq5wO00rFB3W4n0vMSx1dYq4IqpfIkYyieJ/Wpv6pyvm/Is82Jv68TbM2R/TbwMMQzsZzRlz1YRSFGf+gikYumu1aijHZP55U0Sm5BqvD3LVjdi59JgOHYBAAAAYDouPHfuHPEwLdwCJp8JU10lnRangahUkzteDtz3U5Mrah37MiVqqtYsGcDaAYOorItqpSdICMbd/oiy2YAZo/Lie2mLbMmSDGkapwm5+dlXeDmAI7fS7Qgt3xiSli/FedG7AIce12waZTDpNahc5lY/1eIrj+cshR164OIW8xrfsNJaZbnXxaLsWszBa5YaZd/+BQAAAICZunBubo54mCbZciEr1HXKNspaBVBUFlUXSmeI06VPBLDFnNVFWL5USA9uQ+XJfjQtWFheurRWbhBp3UvdLqimNCPW5+++yd081Z/T0m13vDcCJFP5xpCgfKVMevIiyRsl6liQg9sFmAUf11MqQ5jD85QT/1U3tLzJLsO7cFNkj+GA1dpV2rYbqGeEV9V1KL8sX9TUa5y0PgMAAADAzM347cFaIKcCz6Rv5eQul/1+l7ba2dg/3cLLdGoBL9qJkRenxVRUavkZN1tomkLoNPVcrv7spNWV2O1u2Lf7dtrPKMbEL40JfAmPrIyH/8xNWPmYKS+B6zOULw5TXkLLFybGth7f8A0KUxkmSh67PWqsaC+X4vLFupFzcLkBq/ZCJof9UiYL3+zh1noAAAAA2B0XnD9/fof/4C7C02hx5Tdteurshbrn5UD+6fySHX5ZEXfRW5+3/g7WpbXFGnUi0pO0eazKqjuDvT4WlhfvMgWqVvvU4BdExUgzfJrKvzXau11EoFMRNWq5VK5K9WKbamp9nEd+EYw7q0hfywvzlEOlGzSfzVg+Q15sQesLLZ8IfGXXy2ZJ28dnxLz8MqQmLWwZ8qIErc+/76SovAhxtmeQofVpaRq355To+dGPv4Ms8JgQx/BmM+s9HmxyWsk6RvXHA/TxhmMXmxwAAABgOqYetEIacNCGijUAAAAAAOw9CFoBAAAAAAAgtWb8TCsAAAAAAABAfAhaAQAAAAAAILUQtAIAAAAAAEBqIWgFAAAAAACA1ELQCgAAAAAAAKm1T4NW/omXRVqstNRn8OPfmay0BuqTl2laIP79St7ecqjQKIv68W+cOmmtddVYAAAAAAA4qNDSus/ECjgHLVrvFGhpIj/a2qW1WocK9U3a3ORhvN+CzZSaMp2Nak6N8Ro5oD4gWhX7pgGCfa/gG1h8HDnbSwyeTSbOj0rYNAAAAACYuX0atOZpmQOoZkl9Bt1gq01UPSG20gQM+tSnAhUnkhgkwQFYI1tXNw3qVOjUENgz2QOgTfMBN0Dyy/ZNFjFsVKlfc3sItFbaVNxQ0+oF6mjTAAAAAGD2ZhK0elqBFtdIb7gIayGyW9T07qJysqyIetPQx0V2L/V0ZfW22plaqzzT/N2ODWmGT1MtQPagpcnr0lcvy6RGtCpcgdaX9Za71iHqNcpuukPboEsnG0TFBW9zqF4+TkNn2i50Zpt66k+/sG1mKl+Y+OU7YGSreY6qJ+y7Bnk6IYK0XntLfT6oxDmyPi8Cz2VaUGNCZbKUVX+yUlPrLZAvUkEc4dtnxN98Lq+11HEtzsOuapHFYwgAAAAAUzX1oJWDDbcViIdlp4XP20K0SdW+t4WIg5Py9pKcxt1FO+uicigrkR1q60FPv09UKMp0jd1LudJZ61PVbkURQ1PVTk15GbTWiFbdZarUcPNpSNM0rVWpUb+64YznNOMFYD1qlNdpXqVZzXVoXeTFLne9QJTT0t1c9jaBDlrr1Cksebrw+svOadjCtosdRC7KCLdDNV8QadxmCcQt34HDNw1yRXd/imOu3OiJw2Rb3sw4uPK0HLenRbdNHX0bmnQatL3Ex6E4D2vbtMQt2702WmIBAAAApmg23YM77YAKdJfanQLVtaCjtFTwthDlqk5QklkoUk5WxK2WpI4WtVq9XaODl9Z6RyS5GlA5NeclU1r2LLNQzImYgJteTGkaponAotHzPlNaWq1SLnA7DSvU3ZYgPS9xbLV7Ir7XtpV6vlUvuyt8u9hBJHefFDmiui+ING0zmLyB/RxmjcS+EIEU9amPQMrI6QnAz2QvBQe43bWaCGir5JwC2t+5SXWxBwAAAACjqQetHNzUC25LnNPaJp+F1FroVOVRlytqHfsyJWqqVloZwNoBnqistylOK0mXtntE2WzAjFF58b2YRbZkSYY0jdOE3PzsK7wcLJNWAY8SYx+FCt1mMHG9BpXL3OrHNw7EOSL3W5bCDj2wlJrqRosY5td93foF7k1Q45s2eDYeAAAAYFfNpKXVfelJnbKNslY51Fro7CFOBVEEsMWc1UVYvlRID25D5Wk++IW0SlheurRWbhBpXVLdrsemNCPW5+++aXg2dFK67Y73RkAsSfaRaZvBRB2ep5z4r7rhdru3ugzvwk2RPczfE4ADVusQ1rYrAAAAAOyK2XQPdmiBnAo8awlfpMOVzH6/S1vtbOyfbuFlOjXfS5xYjLw4LaaDFq1orYahaQqh09Rzufwsqs3qSux2N+zbfTvtZxRjOiw2cOBLeES+A3/mRr6Exn1G2Gpdsv4edx+FbTM28fIdVHIf9aixor3oio+lkW9OHGT8cjK327wbsI73800AAAAAMBkXnD9/fof/OHfuHM3NzcmRk8TPjXlikkLd8/Ic/3R+yQ6/rIhfALQ+b/0djN+gW6NORHqSNo9VIXVnsNfHwvLiXaZA1WqfGvyCqBhphk9T+bdGe7cLd60VtWa5VK5K9WKbamp9nEd+EYw7q0hfywvzlEOlGzSfQwSOTrdfMf/G/Dqt0GrkdpHksvwcpbdFyrjNIsqnr0sy7WPftINK3yae/XOABR5L/Jx8szQ0jX9n2DqMfOeljZdb2qZFfiOxWN69Pp0R8/OL0RDgAgAAAEzL1INWSAOuiKNiDQAAAAAAe88FZ8+elUErQ9AKAAAAAAAAaXIhB6oIVgEAAAAAACCNZvwiJgAAAAAAAID4ELQCAAAAAABAaiFoBQAAAAAAgNRC0AoAAAAAAACphaAVAAAAAAAAUgtBKwAAAAAAAKQWglYAAAAAAABILQStAAAAAAAAkFoIWgEAAAAAACC1ELQCAAAAAABAaiFoBQAAAAAAgNRC0AoAAAAAAACphaAVAAAAAAAAUgtBKwAAAAAAAKQWglYAAAAAAABILQStAAAAAAAAkFoIWgEAAAAAACC1ELQCAAAAAABAaiFoBQAAAAAAgNRC0AoAAAAAAACpdeG5c+eIBwAAAAAAAIC0uXBubo54AAAAAAAAAEib6XYPHrSosrhIi2tdNULortFipaU+CPY8AeMqrYEawYuJeRbXiFOy/vYO+rwAew6fF1HHdNC5ErCcNVjnihS03DQZ1jdoVbQ8VsguIs5pAAAAAAgzg2dac5Trt90KtM9gq01UrVOV2k4Fls5sUy+XI9o+o0Z0qd0X6ahPLFfdoM3NTWdoljJqCsBeVaC6fUxvVIkaZU/gFniu5Jedc6AqThD3vFimvJolcLkpClsfB6blRtYt42aT6KQb2OKcBgAAAIAgMwhas1Qs9mk9pLa81e5RNpunhSJRe0ubJ1ukoh3sdkUleGlJpNSn/gwq3QC7LlOiZr1AvcZJ54ZP6LkSIelySQWub9Ci9U6OqhtuMM1KyyX1FwAAAABAsJm8PThbEgFne0t90oiKbLtXoKKoxWayWep55smKSm+f2qLGzjErzwNwoByep5x9o8Z4rhgkXS6pkPVx62svVyQ0ngIAAADAqGb0kzd5KmYbpD/aymRFtlC0Wl7yRSr0rO6Eg35fTs8sFKnfXqM2qXk0vUbZ8/ybP22APS+Tpaz6M+xciZJ0uaRirU8EtvKZVx60515xTgMAAABAkBkFraL+eqIqAlBvLZS7ERacJlQR2BZ63u6LmRIV+x3VzJqnee2hVv/zb8t2MgD7xaBP1u2bGOdKiKTLJRVrfdz1mc/bekGNsOCcBgAAAIAgMwtarQB0nVp2LVx2IyTq1NyWlZqIT+3uhLn5w/LfUlOvvPbcdzMB7HOy1ZKyVCLzuRIq4hybOMP6uKuw+GOqrbwAAAAAsD/NLmgVSktZardV1CrfEFz1tKzwG1NzomILcOB116jc6FGhvmw8V4xBYNLlkjKt7/AyVXM9aqzM6Gd3AAAAAGDfmGnQys+4ZXs9+We33aFccUH+7eDWWFGxPbNtzWPif/4Nv+kIe1+HavYxXetTdcPqZWA6V0xdfZMul1TU+rjXRD3bcM9bbobV4JwGAAAAgCAXnD9/fof/OHfuHM3NzcmRAAAAAAAAAGkw25ZWAAAAAAAAgBEgaAUAAAAAAIDUQtAKAAAAAAAAqYWgFQAAAAAAAFILQSsAAAAAAACkFoJWAAAAAAAASK29HbR217TfdayQ+7OOXVrjcZWW+pwO3TX3tydblWS/Q8nLrXXVBwAAAAAAgH1uDwetIjCtdahQ36TNTR6aVMqoSWk0aNF6p0BLqc7kZOlB+l41+zKk84bLaILLwNvSvcnku/kizo9K2DQAAAAAOND2btA66FOfClTMq88eeVrmQLZZUp9332CrTVQ9IXIGEEL2HGjTfDWnRuxBhjLkl+0bTGLYqFK/5vaOaK20qbihptUL1NGmAQAAAMDBNpug1dONV2+5Ui0y9qC1zLQqXGnVp6+JuTVntqmn/tQNWhU3vaHmGt/65FCx8rfWkl1vZTfjrmr18eRHW2aUfEpdOtkgKi6EtbLay1vL+rsAyzJ5yhK+Pk8+YzZX2a2J+rZzF/VtM0/rWfA0O51ah6jXKLvTY+Yn/HgJ3w+RQtIMK/vYZRiZ2Jbr8yJoW6YFNWbvGaEMmSxl1Z+s1NR6SuSLVBBn9/YZ8XeMcxMAAAAA9rcLz507RzxMDVc6a32q2q0oYmiq2mmrUqN+dcMZX6WGFhT0qFFep3m1XDXXoXU9uOBogjpU8wUTmVJTzr8R0NLTXatRp1C31rdRJZ6jUG9aEzsN2l7apHpBrLe2TUubdSr02rK1Z9BaI1p188/5dAMpbz7rBZEnX2AzaK2L9S6FdF/mwM/eDsuxWmI7teD1cQDWyKrycT77NU/AZ8KBWXl7SS7H266zbgUFpn0UNs3eB/UCUU6bvrkco3SG48W8HwwMabKgso9VhkTytJyingHJjFCGbps6uWK8Lv2GcxMAAAAA9r8L5+bmiIdpaa13RKV/dbhyKgKJRs/7jGdpVQSSnbYI4ywcUNqTF4o56m2fcYIJ7kIo5qB67GCiS20R5xbs/sSZEokkqd9XNd9clewkcr5uvJnSsif/dl5sej7zRZGvft/6oGy1e+56PbacgFUPoqIMrU9sM6t8Ynto26G0VKBee0t9iiDKb2/DzEKRcr1t4z6Ks/+SCD1ehKj9EMaUphRQ9nHKAOGclnJ+Hn0pOMCVN5e085H3T9i5CQAAAAD735S7B3dpu0eUzYZEC7n5GVZA8zQvgtROW4Ujgxa1ezlDl12N7yUx5UZQx2SNHvRwcEdaBVzTazRIhFPx8hDm8LxsMbae8dVannmQrdGKrwz+bsW5otahUwT0zc1l62/TPkq6/0LzEnG8jLofpIg0haCyIzCajlJT3WQSw/y6t+s3454UNb75sudbnQEAAABgUqYctFqBYih/i1bIc6qTkuWH6Do1K+gpN4hMrW9KKdOlNTmv20U0qOuxhxbMddsiLNWDIg13O92oEjXKQc/BxsTbTKzPorU824Nd+ZfBmD4tZmBm2kdJ919oXkzHS4L9IEUcg7Br/C3lHLBauxg3DQAAAADANfUXMXHFtFMLCMrky1as51RtVjfOKXX/G1g/OaMHdaN0yXVa6kQ6K6EtfCKwqmlBqlqn6WduuLuzfC7V92IZp9tyd83Yoii3Ga9Pdncefp52LIZ9FGf/HRbRYuzuyUro8aIY94PdEuvbllFpmiQpA8TBLydzu827AWvKf7oKAAAAAGZu6kErB2Ub1b6n26rVJZB/lqZOWe3NrPwSoVECySD2M3My0LNbVTmQE0HdEgeHal32EPUin9YgTyf45Tw1tUx5m4q+Fj5nmu/5VP6Zm16hGBmE80+ByJcY8dtRRXb42VCyt8v6PNVD17dI7aK7Pu56yS9fsqfxEPdFTMFM+yh6//G+t8ql8hMjoDYdL1H7IUx4mtGSlCEpz7HbU+vcY2/JNZXBeZ5VDjWi+qbqNm8FsGIBcdhr8+ANwQAAAAAgXHD+/Pkd/oPfIDzNFzLtOm6FE4HOkt4tVo7j34dM3rrDFXF+s+nwM6v8VmB+yy9ajgAAAAAAAJKaze+0pkHA85ayJZSyZHhHzxi4JRIBKwAAAAAAwDgOTkurwL9jqr9Q13px0XgvfQlvaQUAAAAAAIBxHaigFQAAAAAAAPaWg9M9GAAAAAAAAPYcBK0AAAAAAACQWghaAQAAAAAAILX2dtDaXdN+99H6jVML/9xM+n7nkV8ENd7vpu5Be2wfAQAAAABAuuzhoFUEPbUOFeqbtLnJQ8p/XmbQovVOgZYO1G/g7LF9lAr7IZgPKQP/LrJzA2OR1rpqvKSWcYY1MQYAAAAAYC8HrYM+9alAxcCfmuHfSBVBUrOkPu8+/k1Yqp4Y6+d19pw9to92nWyVbtN8NadG7EGGMrRW2lTcUDcw6gXq1NyW91alRuTc3NikeqFDNW9UCwAAAAAH1GyCVk8XUb2LrK91RWuZaVW4QqtP97W8nNmmnvpTN2hV3PSGKr3+1hweKlb+1lryN1dlF9auahHy5EdbZpR8Sl062SAqLrjNjJyenj2Zb22EZ32+ND3TtGXs7sf6Nohd70/5PnK7Fe9Xotzr8yJgW6YFNWbvMZeh1NRa2vNFKoijY/sMf+jSdi9H84flFOnwvAp6Y5ybAAAAALC/TT9o5UpnrU9Vu4VFDE1Vc+XWlX51wxlfpYYWxPSoUV6nebVcNdehdT0gq3XEPB2q2YGNWi5Tasr5NwJaerprNeoU6tb6NqrEcxTqTWtip0HbS9zCI9Zb26alzToVem0ZLA1aa0Srbv45n25Q581nUAvRoLUu1rsUu2ssl7GRVfmUw7LTQsuBqT6t2q95npPtNcpU3l6S03gbdNZjVO73wD7a/92K87S851udk5YhT0U+78rqpsegRSuNHhXsJnrDuQkAAAAA+9/Ug9bWeody1dXhoEMESo2e9xnP0qoIUjptq+Iq6MHKQjFHve0zTsDD3QvFHFTnv3lYjup426W2iKGcinCmRCJJ6vdVzTdXJTuJnK8bb6a07Mm/nRebns98UeSr37c+KFttrQIel7YdXFwGUWatrKWlAvXaW+qTIMphb4vMQpFyve2AdLz2zD6CfUPenNDOufwyHy9k3eAoW92IncPFcG4CAAAAwP435aCVu/0RZbP+aEjJzc+wApon7nHYaatwa9Cidi/n6bIbyvcCmXIjqNOrRg8UOfAjt9IdBwd9ssVWrc9pSZXPiGotlzzI1kxXrqh1zBRBX9NupfWVwe3Ku0/2EewZ3BJf45svWqss9yBYlF2LOXjNUqN8AN+0DQAAAACBphy0WkFIKH8rYMgzkJOSzYr/dWpW0FZuEAW1LvqUMl1ak/O6XWSDurV6aIFet93xBpIxyZYnub46ZRtlrQKvtVzaQ5wumTKA1Zezuxzv/X0EewcHrNbp5HZ555sT652c2NXqOM4vy1b6XuOk9RkAAAAADrSpdw/mLqOdWsDLieSLWKxnIG1WN9Updf+TFWNvwGc/txmH0xIp0uHn7YKJALemBalqnWE/c+N0e+2uGVpvtaBSdpcdfmZ2XPtlH0G6uQFr0DPK9kuZLHyzh2/+AAAAAABceO7cOeJhWrir60a17+nSarUa8k+eWK2I9nh+wdC4QYr9Zl0ZBNotdhzkiYBvSetyaw9RXRBbgzyd4Bca1dQy5W0q+lpanWmL1kuL7DLwz9z0CsXAAI+fDSW77OvzVNfS9L452LtdSk3r5Uv69HG7Ue71fbRfeLZLr2GVf4+9JTe8DPwGbb4xwy9csuZxpnEvAPkTOO74Wr+Kn0MCAAAAAOmC8+fP7/AfHLjOzc3JkfvSoEUVEXAuaW/itcbxS1+Sv52WK+n8ZtPhZ1b5p1v4zbrJ0z5wprSPAAAAAABg75r+T96kRcCzmLIllLIU9g6i8XArJQKtkcx8HwEAAAAAQNodnJZWgd9Q6n3ZLj8/qbXqJRDe0gpJTGMfAQAAAADA3nWgglYAAAAAAADYWxC0AgDAvvDTN3l/t1p3/o6C+gsAAAD2moPzTCsAAAAAAADsOQhaAQAAAAAAILVmE7Q+26Srfz9DGTncRPer0dHup5t4mT9uqs8+p25SafJwNTWfVeN30f13Zujq+/vq02w1/zhDN51SHwJFbM9dcuM7W/SSjzyuPk2eTP+Wr6pP+8Oo22yS2+Bjt4i0OD05fIW+rMbr9uM2n4Rd2S6PfYku+vDD6sO4/pp6V15Jp47frT7H8TjduPqlwOMkHv75sDXxfwAAADioRgpaf/zjH9Njjz1Gf/VXfyUH/pvHGXFg+fFHafW9AxrwcD3RDRMJmkQAds+9dN31Kt33PkiVi9Ukg90MKg+SM+0VevfHvqk+GTzyFWrRT9HtpcvUCIjk22YyENKHsKDo6R+PETi4bn5/iZ6/q0S3H1Ijwkxofez0vfep8t1HHzurRsZgBdjBgfU0xFrfBLdLpGcfptd//nm6vXylGjEh3zHeHfO5jFYXnqdfGzlw5mB1kRYXa9QR/9XE32uIXAEAAA6k2EHr888/T9/85jfpf/2v/0VHjx6VA//N43hamOb9p2j1t+6ga9RnOnYHrdKnY7aKXkN3cED67yvqs+bZJ+kUXUe/cUx9hhgM23PCBt/cpm99/hb69Yha5sfufo7o0Cvo5kvUCIgUuM2uvFwGks//0avp0qe/NxS4foqn3fXL9Bb1edomvb77HnhBlPHlVKIX6BNfG6ixe8+s98NHNx4nWvgl+u0YN/Ti+QXKPfwwHXt4TX2O58jir9OfXfw4vX7zB2pMFA5Ya9SvbtBmvUBUqNPmJn5aDAAA4KCKFbTu7OxQv9+nF7/4xfT617+eXvWqV8mB/+ZxPI3nGXLqJlqZWx1qAX2rCDQ//Td9p9Wzf//VTjdfu3urPi5zZ0CH4mcepSfVn37cTdZZVrXq2und8F2iJx+6IjBtz3LaeFM+mb4cp68LTJNbn+9sqmlXU/OU6j6ttUB7lvN1qfZMG2q1Vl2AfcuZtmfzj7lrdfBySeVv/RxVX/cT9PedGv3bD4a0uD7yFbr1aaLSO94sP8pWqoAur/p4b6ui26Il5xGB2umzX6U3qOlvuDcguBHr9C/rTdNtyePxb7j3q9p0bytfWF6Y2zJoDXperNY4NfiCy7C8OHzbbMglb6bbuVHt6R/IZT3r8uUxqnymfIaZ1vq6XOYrX0f5Q0RPPHBajVXbSztm5Gc+DtT2521F9Bxdb6frn9cZrLx++SM8z1fUNJG/e6OOF2t81PpM24UFpWmPN20zo8e+RLfSZfSNxVeoEUTfX76STi0vW118rzxOp+9eFv/y38tqDtX91xns8aKMx4PH28t8++67tWVF2t9Xk5W3FC8j2np0qOyBBuJ6SzkqLmTkx9z8YfkvAAAAHEyxgtZ/+Id/kK2pr3zlK+lFL3qRGkvybx7H03gev/u/dS9d98+5jVULiDjIeqXbPMoB5BWDVdnF95GrjtK991tBWPaaB51xOif4uude8eleusFOVwVi/ftvInqn3WV4QKu0IgNOO707f4bo6FWPONMHN1htwByYrszd6S537gZPN+KwfPqX4/RtxjS/u0KPXsPzP0kr93D36Tvpuh9aLdBcRn25wXvdluqw8tnuvWeF3vhbatpL76UVNS1se1pEHj4evJzJ4M/fTTfccEPo0Br8pJyvf98tVGmdkX/rvvzwc+L/L6d3XWF9DsMBy6VHXior7q1Dr7ZaFMVQ4uDAE9z8gK7/ANE9dy3IrqtP3P1tTwVZBrQfsNZ5j2rt4mBCT/P5u671tGA+cff3iN5tTbv90At06wes9X1ZBDbvspfh1k3OiwpQOIA5dvcLVFLL8fD166zKN6/v1qd5/db4EreKaoGNKS8s7jYjuoguFctGdeUNK58pnyajrI9bTW9tuWUPXZ/qDp0/lKFrf/GnYnWvPXLdtVo+3HSf/x23S3XosfTwjyj/R3wMifw98GI6pfbvZx4J3+9R6zNtl6jjOmybRfnytwZ06eUB5/tfnKYXff7z9JLXfoee/8IxevXnf1d8EfwF9f6ag9r/rlpSxaDGn1oWE4Qjn7bGv+S18uOQ//PhDxN9kOf5IP00ibQb1nKOi6+k33zpgD7zmPpskilRMdejRrlCa+3oaxEAAADsb1N9EdOT547SG19JIni7gU5xoHj9dURzRymrpksvFYGgChyzP3ecjv7wUWMrnx18ybToOrqT/+bBTuOaOzwtu289dpSeHHxHfQpzP332uyItlQarXHMdPXnqi+qTEJBPfsHUim85V0SaIr07VOx+9Kr3ut2nbd/9bOB2iCrfdde7z/bGK7slyXLPnTlDzzzzTPjw9z9Sc4p5n/S1eooA8taHRTD6jtc5XSUvPSL+d/p/0mkayCBGD5K+fujbInDxtjCuvoMDGKtFURLB7W+++810hFRwQz+iJ5xWKRHQ/sfv0RP8LOgf+bpnigDpRhGQBLrycvqUChBl/tT63vI7WhqXvJl+lv8VeWcrImAlEYTYyzlEmT/BAbhW5ndxq+jDT7tBmCkvAdtsiJqHrjwUPo8uoHyx8pmUtj6Jt1nE+mSgrrpDHzl0kRhjBZCJySA4+FiSxLquVTcLLv3FI+J4cpn2eyKGvDjHddA2i+HxZ4l+7pVuK6vjtW+jl73K+vPCt/0SvdT6U3rVmtbt91WvIXnb6fRT8mOkX/kg5X5B/c0ClrtMXGP+5pl4XYRLzU3aqBJ1Oj3qNcpUae3dbuEAAAAwnlhB60/8xE/QS17yEhmI/OM//qMaS/JvHsfTeJ5hx+joxVbwtnpNlvrPnKKjGe9t+qPH3qr+Ei6u0INaq2IinjcVZ+iKh8I6EWvk87Faqy0PsiXXFZRPoxhphuHA/M6fcZfVW1ITlW9K5m/+nHzOLGx4/7Xq9kSuSp+71fsw2umv/UAEkC+n21ULJLv0iNWK9sTZ0zKIkUGLCGj+VgSap592A+BwVusis1q+tJbKp18Q6xOufK2n9fLmd3NrGVHrA9HdL2X+bE43Y2vgwMPjyMvUHxoum/jnibu3nOWu195NE5WXoG3mePgxaxkOzPn5VtXCNwqnfBH5nLiI9X2G/7a35xW/TCXxT+vheK2NQeIdSyGi9vuIxsqL0eP0yA/Vn6P4a7u7MA+/R+fV6Em5NPMSemLAvQXiyZSaVM3lqFoX0asIXBfxJiYAAIADKVbQesEFF1A2m5VvCv7GN75B3//+9+XAf/M4nsbz+D3KlSYZvFm+M3iSjr3SCl7538m7n276+AqR1v03uDtsEK3V1h7GfmFR8jSvucFe5k469tAVKnAdp3yzdaZVoVvuE3kWAetmk8MML9ka6WsNtFrRRPAigjN6x+V0+6Hn6DMtDmis8X5PnBZpxHXo1XQPt2CJ4M7zrOslb6avq26Zp3i6ofultb6L6GZS3Yw5OHS6dPoEtYYderEMSi99x4KznDWo1ruIvARtM4eWlyQBK7PLF5nPSTOtT960EOyg3A4UJ9Hqq4lzLH3qUIz9PgEjHdehLqMr9CbUGHJH7qZv/95fyBZT2T1YdvOdrCcGz4vA9eXqUxxd2u5lKZsv0Wo1R9RHV2EAAICDKHb3YG5N/fmf/3n6p//0n9KTTz4pB/6bx/G0IG/0VJq4xZX/7dMXRRTL3YanxQmIn23SO30tka/NHPV2+2UXV+j4S++lG3wvKIp08VE6RvfSZ7WXRzkvYkqa5pBrfNvRXL60GJx5ji56XXDAys98Bv7MjQxefkSfeOAF+tlDl8kuvn97+kdyPLecyha2u91n/WQLnK/l1OTS694knynkFr2gLrhH3vQKGTwF0rrd2vg5W2aVxyW7tgZ18xVB6W/K9XuftQ3iz0voNpsUvXwj5HMiDOuzWpe5S7cbzFoBvdb1W90g4Jco+Vs+ZZdnTzdxsW0Nx1IcYfudBa3PZBLHdZhRuuLqLjxmdYj+4d2Nibe0hnZZDsMvZMrN02Ea0Fa7R5Sdxs1OAAAASLuRnmnlNwVffvnl9C/+xb+QA//N48KdoifprVbw9vsr9MarrqN777ki8I3CfvYbcmX31+/eYHWHjQwAr6H38kuS7lHdZz/+KB33tURy11t+eZHdvdZOs/LvrRclOePF4OmWG+gauuN6LpM1P7+oSW/5TJam/83B1sucHryGK2vR5QuTbHsml/+9z9H/89Hgdij58yVBP3MjgpefpRfoiaetFw1xy+sTT7utTp+yf87FbnEbsRssP+uqd8HloNJ9K6sYuGstvxBHTzOo263IJ7+h1+7Oeuz0a+keDlSVt/xOSX52u/mKQT2fyy/kkS/ascdr00x5Cd1mEew0PW+11V9eFdKtOE4+vW/Ktd54G7m+EGHrCyq31SJv/fTNp979cnmDgOe/ni737AfG+0K+vOg/ummyJMfSjU+b9zsLW59pu4x7XId5yz/P0BNx39Yr9E6/g172K/xCpbfL7sHfO1Wll4vPFvetws/Lx93/wupCfPxuOTWWZx+mT/wwQ++6XH026a7RIv9Ga7lBvV6DyotlamTrtInfvAEAADiQLjh//vwO/3Hu3Dmam5uTIydFvj0384gKuAAEfibwA8/JN+sOvagoZTjQmFQAMZYpbbPUlA+m5qMf/iR94vJ/5fnZm93y5Y1P0n/KjJgXDl7bxdjB6k/f1FF/DTt/R0H9BQAAAHvNVN8efM2vrhI99E75My6W++mmKbbuwR5wxS/LLp5pD1hTBdsMEvrt8mVEW39JH3Wuwbvj9Obn6Nee9f5mbByDfh+/0QoAAADTDVrlW3avP0YrH1fdWX//BiL5u60AADB1F19J33j7S+jWDX5Qdrc8TitbL6E/+11fX+oY+O3BzVLA27IBAADgQJlq92AAAIBZQfdgAACA/emCs2fPyqAVAAAAAAAAIF2I/n/9F/yXYz1K2wAAAABJRU5ErkJggg==;" vertex="1" parent="1">
                    <mxGeometry x="-680" y="730" width="941" height="309" as="geometry"/>
                </mxCell>
            </root>
        </mxGraphModel>
    </diagram>
</mxfile>